<?xml version="1.0" encoding="UTF-8" standalone="no"?>
<svg
   xmlns:dc="http://purl.org/dc/elements/1.1/"
   xmlns:cc="http://creativecommons.org/ns#"
   xmlns:rdf="http://www.w3.org/1999/02/22-rdf-syntax-ns#"
   xmlns:svg="http://www.w3.org/2000/svg"
   xmlns="http://www.w3.org/2000/svg"
   xmlns:xlink="http://www.w3.org/1999/xlink"
   xmlns:sodipodi="http://sodipodi.sourceforge.net/DTD/sodipodi-0.dtd"
   xmlns:inkscape="http://www.inkscape.org/namespaces/inkscape"
   version="1.1"
   id="svg88"
   sodipodi:docname="lambo3.svg"
   width="476.01001"
   height="960.00159"
   inkscape:version="0.92.4 (5da689c313, 2019-01-14)">
  <metadata
     id="metadata92">
    <rdf:RDF>
      <cc:Work
         rdf:about="">
        <dc:format>image/svg+xml</dc:format>
        <dc:type
           rdf:resource="http://purl.org/dc/dcmitype/StillImage" />
        <dc:title></dc:title>
      </cc:Work>
    </rdf:RDF>
  </metadata>
  <sodipodi:namedview
     pagecolor="#ffffff"
     bordercolor="#666666"
     borderopacity="1"
     objecttolerance="10"
     gridtolerance="10"
     guidetolerance="10"
     inkscape:pageopacity="0"
     inkscape:pageshadow="2"
     inkscape:window-width="1920"
     inkscape:window-height="1017"
     id="namedview90"
     showgrid="false"
     fit-margin-top="0"
     fit-margin-left="0"
     fit-margin-right="0"
     fit-margin-bottom="0"
     inkscape:zoom="0.295"
     inkscape:cx="-1089.2876"
     inkscape:cy="447.16159"
     inkscape:window-x="-8"
     inkscape:window-y="-8"
     inkscape:window-maximized="1"
     inkscape:current-layer="svg88" />
  <defs
     id="defs26">
    <linearGradient
       id="d">
      <stop
         offset="0"
         id="stop2" />
      <stop
         stop-color="#b3b3b3"
         stop-opacity="0"
         offset="1"
         id="stop4" />
    </linearGradient>
    <linearGradient
       id="c">
      <stop
         offset="0"
         id="stop7" />
      <stop
         stop-color="#ccc"
         stop-opacity="0"
         offset="1"
         id="stop9" />
    </linearGradient>
    <linearGradient
       id="b">
      <stop
         stop-color="#333"
         offset="0"
         id="stop12" />
      <stop
         stop-color="gray"
         stop-opacity="0"
         offset="1"
         id="stop14" />
    </linearGradient>
    <linearGradient
       id="a">
      <stop
         stop-color="#1a1a1a"
         offset="0"
         id="stop17" />
      <stop
         stop-color="#f30000"
         stop-opacity="0"
         offset="1"
         id="stop19" />
    </linearGradient>
    <linearGradient
       xlink:href="#a"
       id="g"
       y2="126.73"
       x2="908.94"
       y1="126.79"
       x1="921.60999"
       gradientTransform="scale(0.92933,1.07604)"
       gradientUnits="userSpaceOnUse" />
    <linearGradient
       xlink:href="#a"
       id="h"
       y2="154.42999"
       x2="714.21997"
       y1="146.05"
       x1="725.51001"
       gradientTransform="scale(1.19329,0.83802)"
       gradientUnits="userSpaceOnUse" />
    <linearGradient
       xlink:href="#a"
       id="e"
       y2="315.63"
       x2="908.94"
       y1="315.57001"
       x1="921.60999"
       gradientTransform="scale(0.92933,1.07604)"
       gradientUnits="userSpaceOnUse" />
    <linearGradient
       xlink:href="#a"
       id="f"
       y2="413.57999"
       x2="714.21997"
       y1="421.95999"
       x1="725.51001"
       gradientTransform="scale(1.19329,0.83802)"
       gradientUnits="userSpaceOnUse" />
  </defs>
  <g
     transform="rotate(90,238,238)"
     id="g86">
    <path
       d="m 557.59,7 c -1.51,0 -4.72,0.3 -6.47,0.94 l -3.5,1.5 8.66,35.94 -124.82,0.28 -7.34,-0.03 c -4.91,-0.04 -9.86,-0.1 -14.84,-0.22 -7.3,-0.17 -14.67,-0.42 -22.07,-0.72 l -1.18,-0.06 C 371.09,43.99 356.02,43.13 341,42.19 320.67,40.9 300.48,39.48 280.87,38.31 c -14.53,-0.86 -28.73,-1.58 -42.37,-2 a 749.5,749.5 0 0 0 -27.25,-0.4 c -4.32,0.02 -8.57,0.09 -12.72,0.22 a 371.1,371.1 0 0 0 -19.1,1.16 451.5,451.5 0 0 0 -19.59,2.18 h -0.03 a 638.7,638.7 0 0 0 -38.6,6.44 h -0.02 a 765.5,765.5 0 0 0 -23.6,5 h -0.03 a 893.08,893.08 0 0 0 -29.25,7.15 738.52,738.52 0 0 0 -18.1,5 c -2.47,0.72 -3.8,1.13 -3.8,1.13 l -13.7,3.75 c -0.9,0.25 -1.77,0.7 -2.62,1.31 -0.28,0.21 -0.56,0.44 -0.84,0.69 -1.1,0.98 -2.15,2.27 -3.16,3.84 v 0.03 c -0.5,0.79 -1.02,1.64 -1.5,2.57 v 0.03 a 47.1,47.1 0 0 0 -1.4,2.97 v 0.03 c -3.67,8.5 -6.62,21.13 -8.94,36.21 v 0.04 l -0.1,0.71 c -0.5,3.34 -0.99,6.8 -1.43,10.35 l -0.1,0.72 c -0.5,4.04 -0.94,8.2 -1.37,12.47 v 0.03 c -0.21,2.13 -0.43,4.3 -0.62,6.47 v 0.03 c -0.2,2.17 -0.39,4.35 -0.57,6.56 v 0.03 c -0.36,4.44 -0.68,8.95 -0.97,13.5 v 0.03 c -0.87,13.69 -1.46,27.8 -1.78,41.56 v 0.04 C 7.1,217.35 7,226.36 7,235.06 L 7.03,238 7,240.94 c 0,8.7 0.1,17.71 0.31,26.9 v 0.03 c 0.32,13.78 0.91,27.88 1.78,41.57 v 0.03 c 0.3,4.55 0.61,9.06 0.97,13.5 V 323 l 0.56,6.56 v 0.03 c 0.2,2.18 0.42,4.34 0.63,6.47 v 0.03 c 0.43,4.27 0.87,8.43 1.37,12.47 l 0.1,0.72 c 0.44,3.55 0.93,7.01 1.44,10.34 0.03,0.24 0.05,0.49 0.09,0.72 v 0.03 c 2.32,15.1 5.27,27.71 8.94,36.22 v 0.03 a 47.1,47.1 0 0 0 1.4,2.97 v 0.03 c 0.48,0.93 1,1.78 1.5,2.57 v 0.03 c 1,1.57 2.06,2.86 3.16,3.84 0.28,0.25 0.56,0.48 0.84,0.69 a 8.11,8.11 0 0 0 2.63,1.31 l 13.69,3.75 c 0,0 1.33,0.41 3.8,1.13 3.72,1.07 9.98,2.86 18.1,5 a 912.52,912.52 0 0 0 29.25,7.15 h 0.03 a 836.75,836.75 0 0 0 23.6,5 h 0.03 a 639.04,639.04 0 0 0 38.6,6.44 h 0.02 a 451.5,451.5 0 0 0 19.6,2.19 371.04,371.04 0 0 0 31.8,1.37 c 8.8,0.05 17.89,-0.11 27.26,-0.4 13.64,-0.42 27.84,-1.14 42.37,-2 19.6,-1.17 39.8,-2.6 60.13,-3.88 15.02,-0.94 30.1,-1.8 45.03,-2.44 0.4,-0.01 0.79,-0.04 1.18,-0.06 7.4,-0.3 14.77,-0.55 22.07,-0.72 4.98,-0.11 9.93,-0.18 14.84,-0.22 l 7.34,-0.03 124.82,0.28 -8.66,35.94 3.5,1.5 c 1.75,0.63 4.96,0.93 6.47,0.94 0.85,0 1.75,-0.07 2.69,-0.25 0.3,-0.06 0.62,-0.14 0.93,-0.22 l 0.94,-0.25 c 0.63,-0.2 1.26,-0.42 1.88,-0.69 1.82,-0.79 3.53,-1.93 4.78,-3.3 0,-0.02 0.02,-0.03 0.03,-0.04 a 8.31,8.31 0 0 0 1.47,-2.28 l 12.15,-31.31 109.94,0.25 c 0.75,0.37 1.47,0.74 2.22,1.09 a 93.39,93.39 0 0 0 13.22,5.03 c 5.1,1.5 10.18,2.55 15.34,3.25 a 139.66,139.66 0 0 0 13.5,1.16 c 3.06,0.14 6.14,0.21 9.31,0.25 6.35,0.07 12.98,0 20,0 10.41,0 20.32,-0.53 29.78,-1.57 a 210.87,210.87 0 0 0 37,-7.22 180.7,180.7 0 0 0 14.19,-4.78 c 1.52,-0.58 3.04,-1.16 4.53,-1.78 a 164.87,164.87 0 0 0 12.94,-6.06 155.52,155.52 0 0 0 11.97,-7 147.49,147.49 0 0 0 30.4,-26 v -0.03 c 0.97,-1.1 1.94,-2.2 2.88,-3.31 v -0.03 c 0.94,-1.12 1.87,-2.26 2.78,-3.41 v -0.03 c 2.72,-3.46 5.31,-7.02 7.75,-10.72 v -0.03 c 0.8,-1.23 1.63,-2.47 2.4,-3.72 v -0.03 a 167.9,167.9 0 0 0 6.63,-11.66 v -0.03 a 176.6,176.6 0 0 0 2,-4.03 v -0.03 c 0.65,-1.35 1.32,-2.72 1.94,-4.1 v -0.03 c 1.24,-2.76 2.44,-5.55 3.56,-8.4 v -0.03 c 0.56,-1.43 1.1,-2.87 1.62,-4.32 v -0.03 a 202.88,202.88 0 0 0 3.04,-8.81 v -0.03 c 0.47,-1.49 0.93,-3 1.37,-4.5 v -0.03 c 0.44,-1.51 0.87,-3.03 1.28,-4.56 v -0.04 c 1.24,-4.6 2.37,-9.3 3.35,-14.09 v -0.03 c 0.32,-1.59 0.6,-3.2 0.9,-4.81 v -0.03 a 285.52,285.52 0 0 0 4.16,-35.22 v -0.03 c 0.1,-1.73 0.18,-3.48 0.25,-5.22 v -0.03 c 0.14,-3.5 0.25,-7.01 0.28,-10.57 v -0.03 c 0.02,-1.78 0.01,-3.58 0,-5.37 0,-0.64 -0.02,-1.27 -0.03,-1.9 l 0.03,-1.92 c 0.01,-1.8 0.02,-3.59 0,-5.37 v -0.03 c -0.03,-3.56 -0.14,-7.07 -0.28,-10.56 v -0.04 c -0.07,-1.74 -0.15,-3.49 -0.25,-5.21 v -0.04 c -0.7,-12.15 -2.08,-23.9 -4.16,-35.21 v -0.04 c -0.3,-1.6 -0.58,-3.22 -0.9,-4.8 v -0.04 c -0.98,-4.79 -2.11,-9.48 -3.35,-14.1 v -0.02 a 221.4,221.4 0 0 0 -1.28,-4.57 v -0.03 c -0.44,-1.5 -0.9,-3 -1.37,-4.5 v -0.03 a 209.07,209.07 0 0 0 -3.04,-8.81 v -0.03 a 197,197 0 0 0 -1.62,-4.32 v -0.03 a 187.44,187.44 0 0 0 -3.56,-8.4 v -0.03 c -0.62,-1.38 -1.29,-2.74 -1.94,-4.1 v -0.03 a 176.6,176.6 0 0 0 -2,-4.03 v -0.03 c -2.06,-4 -4.28,-7.88 -6.63,-11.66 V 110 c -0.77,-1.25 -1.6,-2.49 -2.4,-3.72 v -0.03 c -2.44,-3.7 -5.03,-7.26 -7.75,-10.72 V 95.5 c -0.9,-1.15 -1.84,-2.28 -2.78,-3.4 v -0.04 c -0.94,-1.12 -1.9,-2.22 -2.88,-3.3 V 88.72 A 147.1,147.1 0 0 0 872.52,60.28 155.52,155.52 0 0 0 851.49,49.66 c -1.49,-0.62 -3,-1.2 -4.53,-1.78 A 180.68,180.68 0 0 0 827.8,41.72 210.88,210.88 0 0 0 806.9,37.35 237.1,237.1 0 0 0 795.77,35.88 274.28,274.28 0 0 0 766,34.3 c -7.02,0 -13.65,-0.07 -20,0 a 273.52,273.52 0 0 0 -13.87,0.5 c -3.01,0.22 -6,0.51 -8.94,0.9 a 102.27,102.27 0 0 0 -19.72,4.67 93.39,93.39 0 0 0 -8.84,3.62 c -0.75,0.35 -1.47,0.72 -2.22,1.1 l -109.94,0.24 -12.15,-31.3 a 8.31,8.31 0 0 0 -1.47,-2.29 l -0.03,-0.03 A 14.07,14.07 0 0 0 564.04,8.4 C 563.42,8.13 562.79,7.9 562.16,7.7 L 561.22,7.46 C 560.91,7.38 560.6,7.3 560.29,7.24 559.35,7.06 558.45,6.99 557.59,6.99 Z"
       id="path28"
       inkscape:connector-curvature="0"
       style="stroke:#191919;stroke-width:14" />
    <path
       d="m 557.59,7 c -1.51,0 -4.72,0.3 -6.47,0.94 l -3.5,1.5 8.66,35.84 -124.82,0.28 c -77.96,0.17 -166.52,-11.5 -232.93,-9.5 -66.41,2 -152.12,28 -152.12,28 l -13.7,3.78 C 13.48,73.14 7,165.21 7,234.63 L 7.03,238 7,241.38 c 0,69.4 6.47,161.48 25.72,166.78 l 13.69,3.78 c 0,0 85.7,26 152.12,28 66.41,2 154.97,-9.67 232.93,-9.5 l 124.82,0.28 -8.66,35.84 3.5,1.5 c 1.75,0.63 4.96,0.93 6.47,0.94 0.85,0 1.75,-0.07 2.69,-0.25 a 18.38,18.38 0 0 0 3.75,-1.16 14,14 0 0 0 4.78,-3.28 l 0.03,-0.03 A 8.31,8.31 0 0 0 570.31,462 L 582.46,430.75 692.4,431 c 23.9,11.94 45.51,10.72 73.6,10.72 133.24,0 187.62,-86.59 186.99,-201.38 l -0.03,-2.34 0.03,-2.34 c 0.63,-114.8 -53.75,-201.38 -187,-201.38 -28.08,0 -49.7,-1.22 -73.6,10.72 L 582.46,45.25 570.31,14 a 8.32,8.32 0 0 0 -1.47,-2.28 l -0.03,-0.03 A 14,14 0 0 0 564.03,8.41 17.94,17.94 0 0 0 561.21,7.47 C 560.9,7.39 560.59,7.31 560.28,7.25 559.34,7.07 558.44,7 557.58,7 Z"
       id="path30"
       inkscape:connector-curvature="0"
       style="fill:#71c837" />
    <path
       d="m 347.4,368.54 c -33.36,0 -65.3,1.8 -94.8,5.07 25.65,48.71 97.98,30.26 205.55,31.53 49.69,0.58 89.54,1.88 121.53,2.37 C 532.52,384.18 446.15,368.54 347.4,368.54 Z"
       id="path32"
       inkscape:connector-curvature="0"
       style="opacity:0.9;fill:#262626" />
    <path
       d="m 347.4,368.54 c -3.2,0 -6.38,0.03 -9.56,0.07 0.82,16.17 6.43,30.25 14.6,38.84 4.67,-0.08 9.49,-0.2 14.43,-0.34 -8.56,-8.2 -14.6,-22.23 -15.72,-38.57 z"
       id="path34"
       inkscape:connector-curvature="0"
       style="opacity:0.5" />
    <path
       d="m 936.08,340.8 -5.09,0.6 c -21.54,2.51 -37.69,25.98 -39.28,54.53 l -0.38,7.13 5.25,-4.85 c 15.9,-14.68 28.3,-32.5 37.41,-52.75 z"
       id="path36"
       inkscape:connector-curvature="0"
       style="fill:#212121;stroke:#191919;stroke-width:5" />
    <path
       d="m 730.54,351.8 c 0,0 79.67,-22.6 105.37,-31.98 26.84,-9.8 98.86,-39.14 98.86,-39.14 0,0 -8.74,42.47 -30.48,57.92 -77.22,54.87 -232.69,53.85 -232.69,53.85"
       id="path38"
       inkscape:connector-curvature="0"
       style="opacity:0.5;fill:none;stroke:#292929;stroke-width:6;stroke-linecap:round;stroke-linejoin:round" />
    <path
       d="m 817.03,331.14 -4.44,2.35 c 1,1.16 1.8,2.43 2.38,3.84 4.8,11.72 -10.74,29.24 -26.87,35.78 -0.52,0.21 -1.82,0.84 -3.41,1.66 l 13.62,-3.88 c 17.31,-8.45 27.47,-23.08 23,-34 a 14.69,14.69 0 0 0 -4.28,-5.75 z"
       id="path40"
       inkscape:connector-curvature="0"
       style="fill:#677121" />
    <path
       d="m 825.62,326.68 -4.44,2.35 c 0.99,1.15 1.8,2.43 2.37,3.84 4.8,11.72 -10.73,29.24 -26.87,35.78 -0.52,0.21 -1.81,0.84 -3.4,1.66 l 13.62,-3.88 c 17.3,-8.45 27.47,-23.08 23,-34 a 14.69,14.69 0 0 0 -4.28,-5.75 z"
       id="path42"
       inkscape:connector-curvature="0"
       style="fill:url(#e)" />
    <path
       d="m 831.8,325.27 -4.43,2.34 c 0.99,1.16 1.8,2.43 2.37,3.85 4.8,11.71 -10.73,29.23 -26.87,35.78 -0.52,0.2 -1.82,0.84 -3.41,1.65 l 13.63,-3.87 c 17.3,-8.46 27.47,-23.08 23,-34 a 14.69,14.69 0 0 0 -4.29,-5.75 z"
       id="path44"
       inkscape:connector-curvature="0"
       style="fill:#677121" />
    <path
       d="m 848.71,321 -6.19,1.84 a 18.28,18.28 0 0 1 2.03,5.47 c 3.12,16.03 -20.96,34.28 -43.03,38.5 -3.4,0.65 -28.88,8.57 -32.15,8.8 v 4.13 l 41.43,-12.15 c 26.29,-5.5 44.95,-22.45 41.88,-38.25 A 18.91,18.91 0 0 0 848.71,321 Z"
       id="path46"
       inkscape:connector-curvature="0"
       style="fill:url(#f)" />
    <path
       d="m 848.71,321 -6.19,1.84 a 18.28,18.28 0 0 1 2.03,5.47 c 3.12,16.03 -20.96,34.28 -43.03,38.5 -3.4,0.65 -28.88,8.57 -32.15,8.8 v 4.13 l 41.43,-12.15 c 26.29,-5.5 44.95,-22.45 41.88,-38.25 A 18.91,18.91 0 0 0 848.71,321 Z"
       id="path48"
       inkscape:connector-curvature="0"
       style="fill:#676852" />
    <path
       d="m 804.19,335.76 -3.97,2.1 c 0.89,1.03 1.6,2.17 2.12,3.43 4.29,10.47 -9.59,26.12 -24,31.97 -0.47,0.18 -1.62,0.75 -3.05,1.48 l 12.17,-3.47 c 15.46,-7.55 24.54,-20.62 20.55,-30.37 -0.82,-2 -2.12,-3.72 -3.82,-5.14 z"
       id="path50"
       inkscape:connector-curvature="0"
       style="fill:#677121" />
    <path
       d="m 790.38,339.34 -3.97,2.1 c 0.89,1.02 1.6,2.16 2.13,3.42 4.28,10.47 -9.6,26.12 -24.01,31.97 -0.46,0.19 -1.62,0.75 -3.04,1.48 l 12.17,-3.46 c 15.46,-7.56 24.54,-20.62 20.54,-30.38 -0.82,-2 -2.12,-3.72 -3.82,-5.13 z"
       id="path52"
       inkscape:connector-curvature="0"
       style="fill:#677121" />
    <path
       d="m 180.33,359.03 c 8.3,-2.02 15.48,-1.48 19.8,5.79 l -2.5,17.9 c -6.87,6.17 -13.75,4.95 -20.62,0.15 z m 20.27,3.27 c 8.16,-1.22 15.17,-0.58 18.85,5.5 l -2.38,17.04 c -6.48,2.97 -12.98,5.2 -19.63,0.14 z"
       id="path54"
       inkscape:connector-curvature="0"
       style="fill:#557a00" />
    <path
       d="m 347.4,366.06 c -33.45,0 -65.49,1.79 -95.09,5.06 l -3.66,0.4 1.72,3.26 c 6.67,12.66 16.56,21.1 29.06,26.43 12.5,5.33 27.58,7.62 45.1,8.44 35.04,1.65 79.95,-2.63 133.59,-2 49.66,0.58 89.5,1.88 121.53,2.38 l 1.13,-4.75 C 532.93,381.6 446.42,366.06 347.4,366.06 Z m 0,5 c 91.17,0 171.75,13.48 220.1,33.72 -29.96,-0.59 -65.22,-1.61 -109.32,-2.13 -53.93,-0.63 -98.97,3.65 -133.4,2.03 -17.22,-0.8 -31.77,-3.1 -43.4,-8.06 -10.46,-4.45 -18.5,-11.15 -24.5,-20.9 a 867.23,867.23 0 0 1 90.52,-4.66 z"
       id="path56"
       inkscape:connector-curvature="0"
       style="opacity:0.9;fill:#191919" />
    <path
       d="m 207.56,120.69 -77.75,12.47 c -27.15,4.35 -48.95,48.77 -51,104.84 2.05,56.07 23.85,100.49 51,104.84 l 77.75,12.47 c 13.3,0 24,-10.7 24,-24 V 144.7 c 0,-13.3 -10.7,-24 -24,-24 z M 639.02,86.47 c -2.96,0 -5.89,0.33 -8.78,0.97 l -0.03,-0.03 -63.84,12.3 c -17.73,6.61 -32,14.28 -32,32 v 212.57 c 0,17.73 14.27,25.4 32,32 l 63.84,12.31 0.03,-0.03 c 2.9,0.64 5.82,0.97 8.78,0.97 45.4,0 82.2,-57.36 82.32,-151.53 C 721.22,143.83 684.42,86.47 639.02,86.47 Z"
       id="path58"
       inkscape:connector-curvature="0"
       style="opacity:0.9;fill:#262626;stroke:#191919;stroke-width:5" />
    <path
       d="m 347.4,107.46 c -33.36,0 -65.3,-1.8 -94.8,-5.07 25.65,-48.7 97.98,-30.26 205.55,-31.53 49.69,-0.58 89.54,-1.88 121.53,-2.37 -47.16,23.33 -133.53,38.97 -232.28,38.97 z"
       id="path60"
       inkscape:connector-curvature="0"
       style="opacity:0.9;fill:#262626" />
    <path
       d="m 347.4,107.46 c -3.2,0 -6.38,-0.03 -9.56,-0.07 0.82,-16.17 6.43,-30.25 14.6,-38.84 4.67,0.08 9.49,0.2 14.43,0.34 -8.56,8.2 -14.6,22.23 -15.72,38.57 z"
       id="path62"
       inkscape:connector-curvature="0"
       style="opacity:0.5" />
    <path
       d="m 936.08,135.2 -5.09,-0.6 C 909.45,132.09 893.3,108.62 891.71,80.07 l -0.38,-7.13 5.25,4.85 c 15.9,14.68 28.3,32.5 37.41,52.75 z"
       id="path64"
       inkscape:connector-curvature="0"
       style="fill:#212121;stroke:#191919;stroke-width:5" />
    <path
       d="m 730.54,124.2 c 0,0 79.67,22.6 105.37,31.98 26.84,9.8 98.86,39.14 98.86,39.14 0,0 -8.74,-42.47 -30.48,-57.92 C 827.07,82.53 671.6,83.55 671.6,83.55"
       id="path66"
       inkscape:connector-curvature="0"
       style="opacity:0.5;fill:none;stroke:#292929;stroke-width:6;stroke-linecap:round;stroke-linejoin:round" />
    <path
       d="m 817.03,144.86 -4.44,-2.35 c 1,-1.16 1.8,-2.43 2.38,-3.84 4.8,-11.72 -10.74,-29.24 -26.87,-35.78 -0.52,-0.21 -1.82,-0.84 -3.41,-1.66 l 13.62,3.88 c 17.31,8.45 27.47,23.08 23,34 a 14.69,14.69 0 0 1 -4.28,5.75 z"
       id="path68"
       inkscape:connector-curvature="0"
       style="fill:#677321" />
    <path
       d="m 825.62,149.32 -4.44,-2.35 c 0.99,-1.15 1.8,-2.43 2.37,-3.84 4.8,-11.72 -10.73,-29.24 -26.87,-35.78 a 60.6,60.6 0 0 1 -3.4,-1.66 l 13.62,3.88 c 17.3,8.45 27.47,23.08 23,34 a 14.69,14.69 0 0 1 -4.28,5.75 z"
       id="path70"
       inkscape:connector-curvature="0"
       style="fill:url(#g)" />
    <path
       d="m 831.8,150.73 -4.43,-2.34 c 0.99,-1.16 1.8,-2.43 2.37,-3.85 4.8,-11.71 -10.73,-29.23 -26.87,-35.78 a 60.6,60.6 0 0 1 -3.41,-1.65 l 13.63,3.87 c 17.3,8.46 27.47,23.08 23,34 a 14.69,14.69 0 0 1 -4.29,5.75 z"
       id="path72"
       inkscape:connector-curvature="0"
       style="fill:#677121" />
    <path
       d="m 848.71,155 -6.19,-1.84 a 18.28,18.28 0 0 0 2.03,-5.47 c 3.12,-16.03 -20.96,-34.28 -43.03,-38.5 -3.4,-0.65 -28.88,-8.57 -32.15,-8.8 v -4.13 l 41.43,12.15 c 26.29,5.5 44.95,22.45 41.88,38.25 a 18.91,18.91 0 0 1 -3.97,8.34 z"
       id="path74"
       inkscape:connector-curvature="0"
       style="fill:url(#h)" />
    <path
       d="m 848.71,155 -6.19,-1.84 a 18.28,18.28 0 0 0 2.03,-5.47 c 3.12,-16.03 -20.96,-34.28 -43.03,-38.5 -3.4,-0.65 -28.88,-8.57 -32.15,-8.8 v -4.13 l 41.43,12.15 c 26.29,5.5 44.95,22.45 41.88,38.25 a 18.91,18.91 0 0 1 -3.97,8.34 z"
       id="path76"
       inkscape:connector-curvature="0"
       style="fill:#676852" />
    <path
       d="m 804.19,140.24 -3.97,-2.1 c 0.89,-1.03 1.6,-2.17 2.12,-3.43 4.29,-10.47 -9.59,-26.12 -24,-31.97 -0.47,-0.18 -1.62,-0.75 -3.05,-1.48 l 12.17,3.47 c 15.46,7.55 24.54,20.62 20.55,30.37 -0.82,2 -2.12,3.72 -3.82,5.14 z"
       id="path78"
       inkscape:connector-curvature="0"
       style="fill:#676a21" />
    <path
       d="m 790.38,136.66 -3.97,-2.1 c 0.89,-1.02 1.6,-2.16 2.13,-3.42 4.28,-10.47 -9.6,-26.12 -24.01,-31.97 a 54.1,54.1 0 0 1 -3.04,-1.48 l 12.17,3.46 c 15.46,7.56 24.54,20.62 20.54,30.38 -0.82,2 -2.12,3.72 -3.82,5.13 z"
       id="path80"
       inkscape:connector-curvature="0"
       style="fill:#677321" />
    <path
       d="m 180.33,116.97 c 8.3,2.02 15.48,1.48 19.8,-5.79 l -2.5,-17.9 c -6.87,-6.17 -13.75,-4.95 -20.62,-0.15 z m 20.27,-3.27 c 8.16,1.22 15.17,0.58 18.85,-5.5 l -2.38,-17.04 c -6.48,-2.97 -12.98,-5.2 -19.63,-0.14 z"
       id="path82"
       inkscape:connector-curvature="0"
       style="fill:#557a00" />
    <path
       d="m 347.4,109.94 a 870.2,870.2 0 0 1 -95.09,-5.06 l -3.66,-0.4 1.72,-3.26 c 6.67,-12.66 16.56,-21.1 29.06,-26.43 12.5,-5.33 27.58,-7.62 45.1,-8.44 35.04,-1.65 79.95,2.63 133.59,2 49.66,-0.58 89.5,-1.88 121.53,-2.38 l 1.13,4.75 C 532.93,94.4 446.42,109.94 347.4,109.94 Z m 0,-5 c 91.17,0 171.75,-13.48 220.1,-33.72 -29.96,0.59 -65.22,1.61 -109.32,2.13 -53.93,0.63 -98.97,-3.65 -133.4,-2.03 -17.22,0.8 -31.77,3.1 -43.4,8.06 -10.46,4.45 -18.5,11.16 -24.5,20.9 a 867.23,867.23 0 0 0 90.52,4.66 z"
       id="path84"
       inkscape:connector-curvature="0"
       style="opacity:0.9;fill:#191919" />
  </g>
</svg>
