<?xml version="1.0" encoding="UTF-8" standalone="no"?>
<svg
   xmlns:dc="http://purl.org/dc/elements/1.1/"
   xmlns:cc="http://creativecommons.org/ns#"
   xmlns:rdf="http://www.w3.org/1999/02/22-rdf-syntax-ns#"
   xmlns:svg="http://www.w3.org/2000/svg"
   xmlns="http://www.w3.org/2000/svg"
   xmlns:xlink="http://www.w3.org/1999/xlink"
   xmlns:sodipodi="http://sodipodi.sourceforge.net/DTD/sodipodi-0.dtd"
   xmlns:inkscape="http://www.inkscape.org/namespaces/inkscape"
   width="476.15213"
   height="959.99982"
   version="1.1"
   id="svg102"
   sodipodi:docname="lambo3.svg"
   inkscape:version="0.92.4 (5da689c313, 2019-01-14)">
  <metadata
     id="metadata106">
    <rdf:RDF>
      <cc:Work
         rdf:about="">
        <dc:format>image/svg+xml</dc:format>
        <dc:type
           rdf:resource="http://purl.org/dc/dcmitype/StillImage" />
        <dc:title>Red Car - Top View</dc:title>
      </cc:Work>
    </rdf:RDF>
  </metadata>
  <sodipodi:namedview
     pagecolor="#ffffff"
     bordercolor="#666666"
     borderopacity="1"
     objecttolerance="10"
     gridtolerance="10"
     guidetolerance="10"
     inkscape:pageopacity="0"
     inkscape:pageshadow="2"
     inkscape:window-width="1920"
     inkscape:window-height="1017"
     id="namedview104"
     showgrid="false"
     fit-margin-top="0"
     fit-margin-left="0"
     fit-margin-right="0"
     fit-margin-bottom="0"
     inkscape:zoom="0.70116493"
     inkscape:cx="327.65488"
     inkscape:cy="469.90236"
     inkscape:window-x="-8"
     inkscape:window-y="-8"
     inkscape:window-maximized="1"
     inkscape:current-layer="svg102" />
  <title
     id="title2">Red Car - Top View</title>
  <defs
     id="defs64">
    <linearGradient
       id="linearGradient3876">
      <stop
         stop-color="#000000"
         offset="0"
         id="stop3878" />
      <stop
         stop-color="#b3b3b3"
         stop-opacity="0"
         offset="1"
         id="stop3880" />
    </linearGradient>
    <linearGradient
       id="linearGradient3866">
      <stop
         stop-color="#000000"
         offset="0"
         id="stop3868" />
      <stop
         stop-color="#cccccc"
         stop-opacity="0"
         offset="1"
         id="stop3870" />
    </linearGradient>
    <linearGradient
       id="linearGradient3767">
      <stop
         stop-color="#333333"
         offset="0"
         id="stop3769" />
      <stop
         stop-color="#808080"
         stop-opacity="0"
         offset="1"
         id="stop3771" />
    </linearGradient>
    <linearGradient
       id="linearGradient3759">
      <stop
         stop-color="#1a1a1a"
         offset="0"
         id="stop3761" />
      <stop
         stop-color="#f30000"
         stop-opacity="0"
         offset="1"
         id="stop3763" />
    </linearGradient>
    <linearGradient
       gradientUnits="userSpaceOnUse"
       xlink:href="#linearGradient3759"
       id="linearGradient3765"
       y2="535.37097"
       x2="883.75842"
       y1="542.3974"
       x1="897.22186" />
    <linearGradient
       gradientUnits="userSpaceOnUse"
       xlink:href="#linearGradient3767"
       id="linearGradient3773"
       y2="533.5"
       x2="874.86749"
       y1="537.5"
       x1="879.89642" />
    <linearGradient
       gradientUnits="userSpaceOnUse"
       xlink:href="#linearGradient3759"
       id="linearGradient3785"
       y2="535.37097"
       x2="876.64569"
       y1="552.05042"
       x1="880.71014" />
    <linearGradient
       gradientUnits="userSpaceOnUse"
       xlink:href="#linearGradient3767"
       id="linearGradient3789"
       y2="528.41949"
       x2="876.13763"
       y1="528.35504"
       x1="887.89642" />
    <linearGradient
       gradientTransform="translate(-22,316.2677)"
       gradientUnits="userSpaceOnUse"
       xlink:href="#linearGradient3767"
       id="linearGradient3811"
       y2="528.41949"
       x2="876.13763"
       y1="528.35504"
       x1="887.89642" />
    <linearGradient
       gradientTransform="translate(-24,320.2677)"
       gradientUnits="userSpaceOnUse"
       xlink:href="#linearGradient3767"
       id="linearGradient3813"
       y2="533.5"
       x2="874.86749"
       y1="537.5"
       x1="879.89642" />
    <linearGradient
       gradientUnits="userSpaceOnUse"
       xlink:href="#linearGradient3767"
       id="linearGradient3843"
       y2="528.41949"
       x2="876.13763"
       y1="528.35504"
       x1="887.89642" />
    <linearGradient
       gradientUnits="userSpaceOnUse"
       xlink:href="#linearGradient3767"
       id="linearGradient3845"
       y2="533.5"
       x2="874.86749"
       y1="537.5"
       x1="879.89642" />
    <linearGradient
       gradientUnits="userSpaceOnUse"
       xlink:href="#linearGradient3759"
       id="linearGradient3847"
       y2="535.37097"
       x2="883.75842"
       y1="542.3974"
       x1="897.22186" />
    <linearGradient
       gradientUnits="userSpaceOnUse"
       xlink:href="#linearGradient3759"
       id="linearGradient3849"
       y2="535.37097"
       x2="876.64569"
       y1="552.05042"
       x1="880.71014" />
    <linearGradient
       gradientTransform="translate(-22,316.2677)"
       gradientUnits="userSpaceOnUse"
       xlink:href="#linearGradient3767"
       id="linearGradient3851"
       y2="528.41949"
       x2="876.13763"
       y1="528.35504"
       x1="887.89642" />
    <linearGradient
       gradientTransform="translate(-24,320.2677)"
       gradientUnits="userSpaceOnUse"
       xlink:href="#linearGradient3767"
       id="linearGradient3853"
       y2="533.5"
       x2="874.86749"
       y1="537.5"
       x1="879.89642" />
    <linearGradient
       gradientTransform="rotate(7.9313706,274.97359,927.55874)"
       gradientUnits="userSpaceOnUse"
       xlink:href="#linearGradient3866"
       id="linearGradient3872"
       y2="863.93677"
       x2="242.62505"
       y1="865.19409"
       x1="263.89166" />
    <linearGradient
       gradientTransform="rotate(7.9313706,277.41202,854.83003)"
       gradientUnits="userSpaceOnUse"
       xlink:href="#linearGradient3876"
       id="linearGradient3874"
       y2="863.93677"
       x2="232.43333"
       y1="864.27179"
       x1="252.14371" />
    <linearGradient
       gradientTransform="matrix(0.99043406,-0.13798685,-0.13798685,-0.99043406,120.60901,1463.2521)"
       gradientUnits="userSpaceOnUse"
       xlink:href="#linearGradient3876"
       id="linearGradient3886"
       y2="863.93677"
       x2="232.43333"
       y1="864.27179"
       x1="252.14371" />
    <linearGradient
       gradientTransform="matrix(0.99043406,-0.13798685,-0.13798685,-0.99043406,130.62129,1462.2199)"
       gradientUnits="userSpaceOnUse"
       xlink:href="#linearGradient3866"
       id="linearGradient3888"
       y2="863.93677"
       x2="242.62505"
       y1="865.19409"
       x1="263.89166" />
    <linearGradient
       gradientTransform="rotate(7.9313706,317.41287,1036.4045)"
       gradientUnits="userSpaceOnUse"
       xlink:href="#linearGradient3759"
       id="linearGradient3960"
       y2="863.93677"
       x2="232.43333"
       y1="865.07489"
       x1="254.25746" />
    <linearGradient
       gradientTransform="rotate(7.9313706,313.29633,1111.0614)"
       gradientUnits="userSpaceOnUse"
       xlink:href="#linearGradient3759"
       id="linearGradient3962"
       y2="863.93677"
       x2="242.62505"
       y1="865.19409"
       x1="263.89166" />
    <linearGradient
       gradientTransform="translate(21.43754,297.90666)"
       gradientUnits="userSpaceOnUse"
       xlink:href="#linearGradient3759"
       id="linearGradient3991"
       y2="535.37097"
       x2="876.64569"
       y1="552.05042"
       x1="880.71014" />
    <linearGradient
       gradientTransform="translate(21.43754,297.90666)"
       gradientUnits="userSpaceOnUse"
       xlink:href="#linearGradient3759"
       id="linearGradient3994"
       y2="535.37097"
       x2="883.75842"
       y1="542.3974"
       x1="897.22186" />
    <linearGradient
       gradientTransform="translate(21.43754,297.90666)"
       gradientUnits="userSpaceOnUse"
       xlink:href="#linearGradient3759"
       id="linearGradient3997"
       y2="533.5"
       x2="874.86749"
       y1="537.5"
       x1="879.89642" />
    <linearGradient
       gradientTransform="translate(21.43754,297.90666)"
       gradientUnits="userSpaceOnUse"
       xlink:href="#linearGradient3759"
       id="linearGradient4000"
       y2="528.41949"
       x2="876.13763"
       y1="528.35504"
       x1="887.89642" />
    <linearGradient
       gradientTransform="matrix(0.89332217,0,0,0.89332217,92.369757,365.14619)"
       gradientUnits="userSpaceOnUse"
       xlink:href="#linearGradient3759"
       id="linearGradient4008"
       y2="533.5"
       x2="874.86749"
       y1="537.5"
       x1="879.89642" />
    <linearGradient
       gradientTransform="matrix(0.89332217,0,0,0.89332217,94.156401,361.5729)"
       gradientUnits="userSpaceOnUse"
       xlink:href="#linearGradient3759"
       id="linearGradient4011"
       y2="528.41949"
       x2="876.13763"
       y1="528.35504"
       x1="887.89642" />
    <linearGradient
       gradientTransform="translate(21.43754,297.90666)"
       gradientUnits="userSpaceOnUse"
       xlink:href="#linearGradient3759"
       id="linearGradient4131"
       y2="501.07629"
       x2="835.98706"
       y1="552.05042"
       x1="880.71014" />
    <linearGradient
       gradientTransform="translate(21.43754,297.90666)"
       gradientUnits="userSpaceOnUse"
       xlink:href="#linearGradient3759"
       id="linearGradient4133"
       y2="531.909"
       x2="815.8241"
       y1="537.5"
       x1="879.89642" />
    <linearGradient
       gradientTransform="matrix(0.89332217,0,0,0.89332217,92.369757,365.14619)"
       gradientUnits="userSpaceOnUse"
       xlink:href="#linearGradient3759"
       id="linearGradient4135"
       y2="533.5"
       x2="812.13739"
       y1="537.5"
       x1="879.89642" />
    <linearGradient
       gradientTransform="matrix(0.89332217,0,0,0.89332217,94.156401,361.5729)"
       gradientUnits="userSpaceOnUse"
       xlink:href="#linearGradient3759"
       id="linearGradient4137"
       y2="529.60681"
       x2="805.29413"
       y1="528.35504"
       x1="887.89642" />
    <linearGradient
       gradientTransform="rotate(7.9313706,317.41287,1036.4045)"
       gradientUnits="userSpaceOnUse"
       xlink:href="#linearGradient3759"
       id="linearGradient4139"
       y2="867.67596"
       x2="205.59436"
       y1="873.13715"
       x1="229.69746" />
    <linearGradient
       gradientTransform="rotate(7.9313706,313.29633,1111.0614)"
       gradientUnits="userSpaceOnUse"
       xlink:href="#linearGradient3759"
       id="linearGradient4141"
       y2="872.64813"
       x2="216.55965"
       y1="873.05804"
       x1="238.83344" />
    <linearGradient
       xlink:href="#linearGradient3759"
       id="linearGradient4149"
       y2="320.92892"
       x2="864.66333"
       y1="328.01508"
       x1="889.61816"
       gradientTransform="scale(0.92933392,1.0760395)"
       gradientUnits="userSpaceOnUse" />
    <linearGradient
       xlink:href="#linearGradient3759"
       id="linearGradient4153"
       y2="329.95105"
       x2="810.15131"
       y1="333.27185"
       x1="875.36993"
       gradientTransform="scale(0.92933386,1.0760396)"
       gradientUnits="userSpaceOnUse" />
    <linearGradient
       xlink:href="#linearGradient3759"
       id="linearGradient4155"
       y2="317.56107"
       x2="850.60919"
       y1="322.75696"
       x1="919.6438"
       gradientTransform="scale(0.92933392,1.0760395)"
       gradientUnits="userSpaceOnUse" />
    <linearGradient
       xlink:href="#linearGradient3759"
       id="linearGradient4185"
       y2="121.43388"
       x2="864.66333"
       y1="114.34771"
       x1="889.61816"
       gradientTransform="scale(0.92933392,1.0760395)"
       gradientUnits="userSpaceOnUse" />
    <linearGradient
       xlink:href="#linearGradient3759"
       id="linearGradient4187"
       y2="126.7305"
       x2="908.93628"
       y1="126.79038"
       x1="921.60577"
       gradientTransform="scale(0.92933392,1.0760395)"
       gradientUnits="userSpaceOnUse" />
    <linearGradient
       xlink:href="#linearGradient3759"
       id="linearGradient4189"
       y2="124.80182"
       x2="850.60919"
       y1="119.60589"
       x1="919.6438"
       gradientTransform="scale(0.92933392,1.0760395)"
       gradientUnits="userSpaceOnUse" />
    <linearGradient
       xlink:href="#linearGradient3759"
       id="linearGradient4191"
       y2="154.43004"
       x2="714.22205"
       y1="146.04549"
       x1="725.50659"
       gradientTransform="scale(1.1932885,0.83802028)"
       gradientUnits="userSpaceOnUse" />
    <linearGradient
       xlink:href="#linearGradient3759"
       id="linearGradient4193"
       y2="195.35355"
       x2="674.18182"
       y1="134.52669"
       x1="711.66705"
       gradientTransform="scale(1.1932885,0.83802028)"
       gradientUnits="userSpaceOnUse" />
    <linearGradient
       xlink:href="#linearGradient3759"
       id="linearGradient4195"
       y2="118.96464"
       x2="818.422"
       y1="120.00385"
       x1="897.92737"
       gradientTransform="scale(0.92933386,1.0760396)"
       gradientUnits="userSpaceOnUse" />
    <linearGradient
       xlink:href="#linearGradient3759"
       id="linearGradient4197"
       y2="112.41171"
       x2="810.15131"
       y1="109.09091"
       x1="875.36993"
       gradientTransform="scale(0.92933386,1.0760396)"
       gradientUnits="userSpaceOnUse" />
    <linearGradient
       xlink:href="#linearGradient3759"
       id="linearGradient4199"
       y2="96.967201"
       x2="197.91621"
       y1="88.803345"
       x1="223.76582"
       gradientTransform="scale(0.89436436,1.1181125)"
       gradientUnits="userSpaceOnUse" />
    <linearGradient
       xlink:href="#linearGradient3759"
       id="linearGradient4201"
       y2="92.336121"
       x2="215.44849"
       y1="89.060364"
       x1="239.45892"
       gradientTransform="scale(0.91644092,1.0911778)"
       gradientUnits="userSpaceOnUse" />
    <linearGradient
       xlink:href="#linearGradient3759"
       id="linearGradient4203"
       y2="315.63239"
       x2="908.93628"
       y1="315.57251"
       x1="921.60577"
       gradientTransform="scale(0.92933392,1.0760395)"
       gradientUnits="userSpaceOnUse" />
    <linearGradient
       xlink:href="#linearGradient3759"
       id="linearGradient4205"
       y2="413.57516"
       x2="714.22205"
       y1="421.95978"
       x1="725.50659"
       gradientTransform="scale(1.1932885,0.83802028)"
       gradientUnits="userSpaceOnUse" />
    <linearGradient
       xlink:href="#linearGradient3759"
       id="linearGradient4207"
       y2="372.65173"
       x2="674.18182"
       y1="433.47861"
       x1="711.66705"
       gradientTransform="scale(1.1932885,0.83802028)"
       gradientUnits="userSpaceOnUse" />
    <linearGradient
       xlink:href="#linearGradient3759"
       id="linearGradient4209"
       y2="323.39819"
       x2="818.422"
       y1="322.35898"
       x1="897.92737"
       gradientTransform="scale(0.92933386,1.0760396)"
       gradientUnits="userSpaceOnUse" />
    <linearGradient
       xlink:href="#linearGradient3759"
       id="linearGradient4211"
       y2="328.75"
       x2="197.91621"
       y1="336.91388"
       x1="223.76582"
       gradientTransform="scale(0.89436436,1.1181125)"
       gradientUnits="userSpaceOnUse" />
    <linearGradient
       xlink:href="#linearGradient3759"
       id="linearGradient4213"
       y2="343.88962"
       x2="215.44849"
       y1="347.16537"
       x1="239.45892"
       gradientTransform="scale(0.91644092,1.0911778)"
       gradientUnits="userSpaceOnUse" />
  </defs>
  <g
     id="g100"
     transform="rotate(90,237.99993,237.9999)">
    <title
       id="title66">Layer 1</title>
    <path
       stroke-miterlimit="4"
       id="path3855"
       d="m 557.58777,7.000092 c -1.50861,0.009 -4.72107,0.304901 -6.46869,0.9375 l -3.49994,1.5 8.65613,35.937531 -124.81116,0.28125 c -2.43631,0.0049 -4.88763,-0.01404 -7.34363,-0.03125 -4.91204,-0.0343 -9.86496,-0.104553 -14.84359,-0.21875 -7.29264,-0.167236 -14.66886,-0.412842 -22.06229,-0.71875 -0.39587,-0.01636 -0.79132,-0.04565 -1.18744,-0.0625 -14.93243,-0.630127 -30.00723,-1.491699 -45.03076,-2.4375 -20.32623,-1.282715 -40.52008,-2.707336 -60.12439,-3.875 -14.52802,-0.865295 -28.7321,-1.579529 -42.37453,-2 -9.3692,-0.288696 -18.46383,-0.456543 -27.24972,-0.40625 -4.3158,0.02472 -8.56783,0.09332 -12.71862,0.21875 -4.15075,0.125488 -8.38012,0.355347 -12.65609,0.65625 -2.138,0.150513 -4.27776,0.310242 -6.43744,0.5 -6.4689,0.56842 -13.04498,1.321411 -19.59354,2.1875 -0.0101,10e-4 -0.0211,-9.77e-4 -0.0312,0 -4.37251,0.578613 -8.71848,1.225525 -13.06236,1.90625 -4.34388,0.680725 -8.67339,1.397827 -12.93735,2.15625 -4.25372,0.756653 -8.47041,1.565369 -12.59361,2.375 -0.01,0.002 -0.0212,-0.002 -0.0312,0 -2.06637,0.405884 -4.06973,0.804199 -6.09369,1.21875 -6.0614,1.241638 -11.93371,2.516052 -17.499814,3.78125 -0.01009,0.002 -0.02109,-0.002 -0.03119,0 -3.716461,0.84491 -7.287247,1.675171 -10.718628,2.5 -6.863831,1.648438 -13.115326,3.234619 -18.531044,4.65625 -8.123604,2.132507 -14.382431,3.927246 -18.093559,5 -2.473633,0.71582 -3.812462,1.125 -3.812462,1.125 l -13.687347,3.75 c -0.902405,0.248779 -1.778122,0.692932 -2.624977,1.3125 -0.28772,0.21051 -0.56234,0.435974 -0.84375,0.6875 -1.099579,0.979614 -2.150993,2.270691 -3.156204,3.84375 -0.0046,0.007 0.0046,0.02435 0,0.03125 -0.500374,0.784729 -1.022461,1.640442 -1.499985,2.5625 -0.0042,0.008 0.0042,0.02319 0,0.03119 -0.477577,0.923706 -0.951149,1.914185 -1.406235,2.96875 -0.0037,0.009 0.0037,0.02216 0,0.03119 -3.66703,8.50946 -6.62001,21.131347 -8.937401,36.218747 -0.0015,0.01 0.0015,0.0212 0,0.0312 -0.03595,0.23419 -0.0581,0.4834 -0.09375,0.71875 -0.504623,3.33148 -0.992043,6.79822 -1.437492,10.34375 -0.03048,0.24268 -0.06355,0.47522 -0.09375,0.71875 -0.501556,4.04315 -0.946716,8.20245 -1.374977,12.46875 -9.99e-4,0.01 9.99e-4,0.0211 0,0.0312 -0.213551,2.12842 -0.429123,4.2948 -0.625004,6.46875 -9.19e-4,0.01 9.31e-4,0.0209 0,0.0312 -0.195797,2.17437 -0.383968,4.34924 -0.562489,6.5625 -8.32e-4,0.01 8.32e-4,0.0209 0,0.0312 -0.35775,4.43762 -0.678169,8.9458 -0.968739,13.5 -6.52e-4,0.0101 6.6e-4,0.0209 0,0.0312 -0.872593,13.68408 -1.459583,27.78869 -1.781231,41.5625 -2.4e-4,0.0104 2.4e-4,0.0207 0,0.0312 -0.214432,9.18939 -0.312599,18.21331 -0.312599,26.90655 0,0.96765 0.02755,1.96289 0.03125,2.9375 -0.0037,0.97461 -0.03125,1.96985 -0.03125,2.9375 0,8.69318 0.09816,17.71716 0.3125,26.90625 2.4e-4,0.0105 -2.4e-4,0.0208 0,0.0312 0.321648,13.7738 0.908638,27.87842 1.781227,41.5625 6.6e-4,0.0103 -6.48e-4,0.0211 0,0.0312 0.290573,4.5542 0.610992,9.06238 0.968742,13.5 8.28e-4,0.0103 -8.32e-4,0.0211 0,0.0312 0.17852,2.21332 0.366688,4.38818 0.562489,6.5625 9.31e-4,0.0103 -9.19e-4,0.0211 0,0.0312 0.195881,2.17395 0.411449,4.34033 0.625004,6.46875 9.99e-4,0.0102 -10e-4,0.0211 0,0.0312 0.428253,4.26629 0.873413,8.42559 1.374977,12.46875 0.0302,0.24353 0.06327,0.47607 0.09375,0.71875 0.44545,3.54553 0.932869,7.01226 1.437492,10.34375 0.03565,0.23529 0.0578,0.48455 0.09375,0.71875 0.0015,0.01 -0.0015,0.0215 0,0.0312 2.31739,15.0874 5.27037,27.70929 8.937401,36.21875 0.0037,0.009 -0.0037,0.0226 0,0.0312 0.455086,1.05457 0.928658,2.04505 1.406235,2.96875 0.0042,0.008 -0.0042,0.0231 0,0.0312 0.477524,0.92206 0.999611,1.77777 1.499985,2.5625 0.0046,0.007 -0.0046,0.0242 0,0.0312 1.005203,1.57306 2.056625,2.86414 3.156204,3.84375 0.28141,0.25153 0.55603,0.47699 0.84375,0.6875 0.846855,0.61957 1.722572,1.06372 2.624969,1.3125 l 13.687355,3.75 c 0,0 1.338829,0.40918 3.812462,1.125 3.711128,1.07276 9.969963,2.8675 18.093559,5 5.415726,1.42163 11.667221,3.00782 18.531036,4.65625 3.431396,0.82483 7.002182,1.65509 10.718628,2.5 0.01021,0.002 0.0211,-0.002 0.0312,0 5.566082,1.2652 11.438412,2.53962 17.499792,3.78125 2.02396,0.41455 4.02733,0.81287 6.09371,1.21875 0.0101,0.002 0.0212,-0.002 0.0312,0 4.1232,0.80963 8.33989,1.61835 12.59361,2.375 4.26396,0.75843 8.59348,1.47547 12.93736,2.15625 4.34388,0.68073 8.68984,1.32764 13.06237,1.90625 0.0102,9.8e-4 0.0211,-10e-4 0.0312,0 6.54856,0.86609 13.12463,1.61908 19.59355,2.1875 2.15967,0.18976 4.29942,0.34949 6.43742,0.5 4.27599,0.30091 8.50534,0.53077 12.65611,0.65625 4.15078,0.12543 8.40282,0.19403 12.71862,0.21875 8.78589,0.0503 17.88052,-0.11755 27.24969,-0.40625 13.64246,-0.42047 27.84651,-1.1347 42.37453,-2 19.60437,-1.16766 39.79816,-2.59228 60.12439,-3.875 15.02356,-0.9458 30.09839,-1.80737 45.03076,-2.4375 0.39609,-0.0168 0.79157,-0.0461 1.18747,-0.0625 7.39346,-0.3059 14.76968,-0.55151 22.06229,-0.71875 4.97863,-0.11425 9.93158,-0.18451 14.84356,-0.21875 2.45606,-0.0172 4.90735,-0.0365 7.34369,-0.0312 l 124.8111,0.28125 -8.65613,35.9375 3.49994,1.5 c 1.74762,0.63263 4.96008,0.92853 6.46869,0.9375 0.84863,0.005 1.75508,-0.0741 2.6875,-0.25 0.31067,-0.0585 0.62353,-0.14105 0.9375,-0.21875 0.30457,-0.0756 0.63257,-0.15667 0.9375,-0.25 0.62842,-0.19305 1.2635,-0.42151 1.87495,-0.6875 1.82153,-0.79351 3.53423,-1.93139 4.78119,-3.3125 0.01,-0.0107 0.0217,-0.0206 0.0312,-0.0312 0.62475,-0.69787 1.11224,-1.45123 1.46869,-2.28125 l 12.15612,-31.3125 109.93634,0.25 c 0.74689,0.37391 1.47602,0.74512 2.21869,1.09375 2.97919,1.39954 5.91095,2.59705 8.84369,3.625 1.46228,0.51258 2.91773,0.97553 4.37494,1.40625 5.09998,1.50751 10.18793,2.55152 15.34357,3.25 2.94623,0.39936 5.9259,0.69391 8.93744,0.90625 1.50567,0.10614 3.03393,0.18012 4.56244,0.25 3.057,0.13996 6.13855,0.21283 9.31237,0.25 6.34748,0.0741 12.97937,0 19.99982,0 10.41004,0 20.32221,-0.53118 29.78089,-1.5625 3.7835,-0.41247 7.49108,-0.89746 11.12487,-1.46875 7.26764,-1.14251 14.22834,-2.61889 20.90607,-4.375 1.66937,-0.43902 3.33569,-0.89874 4.96869,-1.375 4.89899,-1.42877 9.61279,-3.02539 14.18732,-4.78125 1.5249,-0.58526 3.04205,-1.16052 4.53125,-1.78125 2.97827,-1.24145 5.88195,-2.55694 8.71862,-3.9375 1.41834,-0.69024 2.83551,-1.40057 4.21869,-2.125 2.76642,-1.44873 5.4668,-2.97998 8.09369,-4.5625 1.31348,-0.79126 2.59607,-1.61346 3.87494,-2.4375 6.39429,-4.12011 12.36304,-8.62548 17.90607,-13.53125 4.42865,-3.91943 8.60156,-8.07977 12.49988,-12.46875 0.005,-0.006 -0.005,-0.0254 0,-0.0312 0.97039,-1.0929 1.93695,-2.19159 2.87494,-3.3125 0.005,-0.006 -0.005,-0.0251 0,-0.0312 0.93774,-1.12091 1.87573,-2.25775 2.78125,-3.40625 0.005,-0.006 -0.005,-0.0249 0,-0.0312 2.72558,-3.45819 5.31323,-7.01892 7.74987,-10.71875 0.005,-0.007 -0.005,-0.024 0,-0.0312 0.80884,-1.22852 1.62891,-2.46436 2.40625,-3.71875 0.005,-0.008 -0.005,-0.0238 0,-0.0312 2.34052,-3.77808 4.56678,-7.65247 6.62494,-11.65625 0.004,-0.008 -0.004,-0.0231 0,-0.0312 0.68299,-1.32916 1.34772,-2.6781 1.99994,-4.03125 0.004,-0.008 -0.004,-0.0229 0,-0.0312 0.65204,-1.35327 1.31604,-2.71692 1.9375,-4.09375 0.004,-0.009 -0.004,-0.0227 0,-0.0312 1.2464,-2.76251 2.43805,-5.55169 3.56244,-8.40625 0.004,-0.009 -0.004,-0.0224 0,-0.0312 0.56024,-1.42291 1.09479,-2.86743 1.625,-4.3125 0.003,-0.009 -0.003,-0.0222 0,-0.0312 0.53003,-1.44519 1.06232,-2.90796 1.5625,-4.375 0.5,-1.4671 0.99841,-2.94903 1.46875,-4.4375 0.003,-0.009 -0.003,-0.022 0,-0.0312 0.47009,-1.48858 0.93433,-2.99047 1.37494,-4.5 0.003,-0.01 -0.003,-0.0217 0,-0.0312 0.44049,-1.50959 0.87012,-3.03241 1.28125,-4.5625 0.003,-0.01 -0.003,-0.0217 0,-0.0312 1.23816,-4.61017 2.36835,-9.30603 3.34369,-14.09375 v -0.0312 c 0.32361,-1.58942 0.6112,-3.20441 0.90631,-4.8125 v -0.0312 c 2.07471,-11.31836 3.4621,-23.06201 4.15619,-35.21875 4.9e-4,-0.0103 -6.1e-4,-0.0211 0,-0.0312 0.098,-1.72791 0.17871,-3.47565 0.25,-5.21875 4.3e-4,-0.0103 -3.7e-4,-0.0211 0,-0.0312 0.14264,-3.49695 0.2467,-7.0072 0.28119,-10.5625 0,-0.0103 -6e-5,-0.0211 0,-0.0312 0.017,-1.78296 0.01,-3.57806 0,-5.375 0,-0.6358 -0.022,-1.27142 -0.031,-1.90625 0.01,-0.63483 0.031,-1.27045 0.031,-1.90625 0.01,-1.797 0.017,-3.59204 0,-5.375 -6e-5,-0.0102 0,-0.0209 0,-0.0312 -0.034,-3.55536 -0.13855,-7.06555 -0.28119,-10.5625 -3.7e-4,-0.0102 4.3e-4,-0.0209 0,-0.0312 -0.071,-1.7431 -0.15198,-3.49084 -0.25,-5.21875 -6.1e-4,-0.0103 4.9e-4,-0.0209 0,-0.0312 -0.69409,-12.15667 -2.08148,-23.90039 -4.15619,-35.21875 v -0.0312 c -0.29511,-1.60809 -0.5827,-3.22308 -0.90631,-4.8125 v -0.0312 c -0.97534,-4.78772 -2.10553,-9.48364 -3.34369,-14.09375 -0.003,-0.01 0.003,-0.0213 0,-0.0312 -0.41113,-1.53009 -0.84076,-3.05292 -1.28125,-4.5625 -0.003,-0.01 0.003,-0.0213 0,-0.0312 -0.44061,-1.50953 -0.90485,-3.01142 -1.37494,-4.5 -0.003,-0.009 0.003,-0.0223 0,-0.0312 -0.47034,-1.48841 -0.96875,-2.97034 -1.46875,-4.4375 -0.50018,-1.46698 -1.03247,-2.92975 -1.5625,-4.375 -0.003,-0.009 0.003,-0.0223 0,-0.0312 -0.53021,-1.44507 -1.06476,-2.88965 -1.625,-4.3125 -0.004,-0.009 0.004,-0.0223 0,-0.0312 -1.12439,-2.85456 -2.31604,-5.64374 -3.56244,-8.40625 -0.004,-0.008 0.004,-0.0223 0,-0.0312 -0.62146,-1.37683 -1.28546,-2.74048 -1.9375,-4.09375 -0.004,-0.008 0.004,-0.0233 0,-0.0312 -0.65222,-1.35315 -1.31695,-2.70209 -1.99994,-4.03125 -0.004,-0.008 0.004,-0.0233 0,-0.0312 -2.05816,-4.00378 -4.28442,-7.87817 -6.62494,-11.65625 -0.005,-0.007 0.005,-0.0233 0,-0.0312 -0.77734,-1.25433 -1.59741,-2.49017 -2.40625,-3.71875 -0.005,-0.007 0.005,-0.0242 0,-0.0312 -2.43664,-3.69989 -5.02429,-7.260555 -7.74987,-10.718746 -0.005,-0.006 0.005,-0.02527 0,-0.03119 -0.90552,-1.148499 -1.84351,-2.285339 -2.78125,-3.40625 -0.005,-0.006 0.005,-0.02527 0,-0.03119 -0.93799,-1.120911 -1.90455,-2.219604 -2.87494,-3.3125 -0.005,-0.006 0.005,-0.02533 0,-0.03119 -3.89832,-4.388977 -8.07123,-8.549316 -12.49988,-12.46875 -5.54303,-4.905762 -11.51178,-9.411194 -17.90607,-13.53125 -1.27887,-0.824036 -2.56146,-1.64624 -3.87494,-2.4375 -2.62689,-1.58252 -5.32727,-3.11377 -8.09369,-4.5625 -1.38318,-0.724426 -2.80035,-1.434753 -4.21869,-2.125 -2.83667,-1.380554 -5.74035,-2.696106 -8.71862,-3.9375 -1.4892,-0.620728 -3.00635,-1.195984 -4.53125,-1.78125 -4.57453,-1.755859 -9.28833,-3.352539 -14.18732,-4.78125 -1.633,-0.476257 -3.29932,-0.935974 -4.96869,-1.375 -6.67773,-1.756104 -13.63843,-3.232483 -20.90607,-4.375 -3.63379,-0.571289 -7.34137,-1.056274 -11.12487,-1.46875 -9.45856,-1.032593 -19.37067,-1.563843 -29.78077,-1.563843 -7.02044,0 -13.65234,-0.0741 -19.99975,0 -3.17383,0.03723 -6.25537,0.110107 -9.31244,0.25 -1.52844,0.06995 -3.0567,0.143921 -4.56244,0.25 -3.01154,0.212402 -5.99121,0.506958 -8.93738,0.90625 -5.15564,0.698486 -10.24359,1.742554 -15.34363,3.25 -1.45715,0.430786 -2.91266,0.893677 -4.37494,1.40625 -2.93267,1.027954 -5.8645,2.225464 -8.84362,3.625 -0.74268,0.348633 -1.47187,0.719849 -2.21875,1.09375 l -109.93628,0.25 -12.15613,-31.312469 c -0.35645,-0.830017 -0.84393,-1.583344 -1.46875,-2.28125 -0.01,-0.0105 -0.0213,-0.0206 -0.0312,-0.03122 -1.24701,-1.381073 -2.95966,-2.518982 -4.78119,-3.3125 -0.61151,-0.26593 -1.24658,-0.494415 -1.875,-0.6875 -0.30493,-0.093292 -0.63287,-0.174377 -0.9375,-0.25 -0.31402,-0.077698 -0.62683,-0.160248 -0.93756,-0.21875 -0.93237,-0.175903 -1.83887,-0.254974 -2.68744,-0.25 v -9.2e-5 z"
       inkscape:connector-curvature="0"
       style="fill:#000000;stroke:#191919;stroke-width:14;stroke-miterlimit:4" />
    <path
       id="path2853"
       d="m 557.58777,7.000092 c -1.50861,0.009 -4.72107,0.306122 -6.46869,0.9375 l -3.49994,1.5 8.65613,35.843781 -124.81116,0.28125 c -77.96289,0.165344 -166.52252,-11.503723 -232.93497,-9.5 -66.41239,2.003662 -152.123347,28 -152.123347,28 l -13.687347,3.78125 C 13.467233,73.140138 6.999974,165.21088 6.999974,234.62512 c 0,1.11298 0.026649,2.25312 0.03125,3.375 -0.0046,1.12183 -0.03125,2.26197 -0.03125,3.375 0,69.41419 6.467258,161.48493 25.718472,166.78125 l 13.687347,3.78125 c 0,0 85.710957,25.99634 152.123347,28 66.41245,2.00367 154.97208,-9.6654 232.93497,-9.5 l 124.81116,0.28125 -8.65613,35.84375 3.49994,1.5 c 1.74762,0.63135 4.96008,0.92853 6.46869,0.9375 0.84857,0.005 1.75507,-0.0744 2.68744,-0.25 0.31073,-0.0584 0.62353,-0.14123 0.9375,-0.21875 0.30462,-0.0754 0.63263,-0.15686 0.9375,-0.25 0.62848,-0.19268 1.26349,-0.42205 1.875,-0.6875 1.82153,-0.79205 3.53424,-1.90277 4.78119,-3.28125 0.01,-0.0107 0.0217,-0.0208 0.0312,-0.0312 0.62481,-0.69653 1.1123,-1.45276 1.46875,-2.28125 l 12.15612,-31.25 109.93628,0.25 c 23.90039,11.94239 45.51123,10.71875 73.59296,10.71875 133.24884,0 187.62628,-86.5863 186.99811,-201.375 0,-0.78015 -0.019,-1.56561 -0.031,-2.34375 0.012,-0.77807 0.031,-1.56353 0.031,-2.34375 C 953.61798,120.86774 899.24054,34.281373 765.9917,34.281373 c -28.08173,0 -49.69257,-1.223633 -73.59296,10.71875 l -109.93628,0.25 -12.15612,-31.249969 c -0.35645,-0.828461 -0.84394,-1.584686 -1.46875,-2.28125 -0.01,-0.01041 -0.0213,-0.0206 -0.0312,-0.03122 -1.24695,-1.378479 -2.95966,-2.489227 -4.78119,-3.28125 -0.61151,-0.265442 -1.24652,-0.494812 -1.875,-0.6875 -0.30487,-0.093079 -0.63288,-0.174591 -0.9375,-0.25 -0.31397,-0.077576 -0.62677,-0.160339 -0.9375,-0.21875 -0.93237,-0.175598 -1.83887,-0.254974 -2.68744,-0.25 v -9.2e-5 z"
       inkscape:connector-curvature="0"
       style="fill:#71c837" />
    <path
       id="path3643"
       d="m 347.40289,368.54334 c -33.36407,0 -65.30688,1.79998 -94.81144,5.0625 25.6602,48.71368 97.98503,30.26531 205.56028,31.53125 49.68634,0.58471 89.54309,1.87927 121.52991,2.375 -47.15967,-23.33417 -133.52667,-38.96875 -232.27875,-38.96875 z"
       inkscape:connector-curvature="0"
       style="opacity:0.9;fill:#262626" />
    <path
       id="path3658"
       d="m 347.40289,368.54334 c -3.20642,0 -6.38305,0.0295 -9.56238,0.0625 0.81827,16.17102 6.42804,30.25653 14.5936,38.84375 4.67142,-0.0756 9.49509,-0.19654 14.43735,-0.34375 -8.56568,-8.19233 -14.59262,-22.22803 -15.71857,-38.5625 -1.25128,-0.005 -2.49469,0 -3.75,0 z"
       inkscape:connector-curvature="0"
       style="opacity:0.5;fill:#000000" />
    <path
       stroke-miterlimit="4"
       id="path3707"
       d="m 936.08404,340.80689 -5.09368,0.59375 c -21.54474,2.51269 -37.68824,25.97857 -39.28083,54.53125 l -0.375,7.125 5.24994,-4.84375 c 15.88916,-14.68043 28.30316,-32.50739 37.40583,-52.75 z"
       inkscape:connector-curvature="0"
       style="fill:#212121;fill-rule:nonzero;stroke:#191919;stroke-width:5;stroke-miterlimit:4" />
    <path
       stroke-miterlimit="4"
       id="path3715"
       d="m 730.53741,351.80499 c 0,0 79.67725,-22.59643 105.37629,-31.98181 26.83941,-9.80182 98.85888,-39.14563 98.85888,-39.14563 0,0 -8.74096,42.46967 -30.48285,57.91809 -77.22326,54.86969 -232.68585,53.85364 -232.68585,53.85364"
       inkscape:connector-curvature="0"
       style="opacity:0.5;fill:none;stroke:#292929;stroke-width:6;stroke-linecap:round;stroke-linejoin:round;stroke-miterlimit:4" />
    <path
       id="path3757"
       d="m 817.03235,331.14477 -4.43744,2.34375 c 0.98914,1.1568 1.79547,2.42865 2.37494,3.84375 4.79791,11.71705 -10.73584,29.23597 -26.8747,35.78125 -0.51672,0.2096 -1.81286,0.84064 -3.40619,1.65625 l 13.62482,-3.875 c 17.30579,-8.45764 27.47046,-23.08197 22.99976,-34 -0.91614,-2.23736 -2.37519,-4.16607 -4.28119,-5.75 z"
       style="fill:#677121;fill-opacity:1"
       inkscape:connector-curvature="0" />
    <path
       id="path3787"
       d="m 825.61652,326.68372 -4.43744,2.34375 c 0.98913,1.15679 1.79547,2.42865 2.37494,3.84375 4.79791,11.71704 -10.73584,29.23596 -26.8747,35.78125 -0.51678,0.20959 -1.81286,0.84063 -3.40619,1.65625 l 13.62482,-3.875 c 17.30579,-8.45765 27.47046,-23.08197 22.99976,-34 -0.91614,-2.23737 -2.37519,-4.16608 -4.28119,-5.75 z"
       style="fill:url(#linearGradient4203)"
       inkscape:connector-curvature="0" />
    <path
       id="path3752"
       d="m 831.80359,325.26947 -4.43744,2.34375 c 0.98914,1.1568 1.79547,2.42865 2.37494,3.84375 4.79791,11.71704 -10.73584,29.23596 -26.8747,35.78125 -0.51672,0.20959 -1.81286,0.84064 -3.40619,1.65625 l 13.62482,-3.875 c 17.30579,-8.45764 27.47046,-23.08197 22.99976,-34 -0.91614,-2.23737 -2.37518,-4.16608 -4.28119,-5.75 z"
       style="fill:#677121;fill-opacity:1"
       inkscape:connector-curvature="0" />
    <path
       id="path3735"
       d="m 848.71002,320.99622 -6.18744,1.84375 c 0.96015,1.71283 1.65448,3.53228 2.03125,5.46875 3.11939,16.03387 -20.96197,34.28356 -43.03082,38.5 -3.39496,0.64862 -28.88397,8.57598 -32.1579,8.80444 v 4.125 l 41.43903,-12.14819 c 26.2854,-5.49628 44.94885,-22.448 41.87457,-38.25 -0.59564,-3.06165 -1.95605,-5.85956 -3.96869,-8.34375 z"
       style="fill:url(#linearGradient4205)"
       inkscape:connector-curvature="0" />
    <path
       id="path3783"
       d="m 848.71002,320.99622 -6.18744,1.84375 c 0.96015,1.71283 1.65448,3.53228 2.03125,5.46875 3.11939,16.03387 -20.96197,34.28356 -43.03082,38.5 -3.39496,0.64862 -28.88397,8.57598 -32.1579,8.80444 v 4.125 l 41.43903,-12.14819 c 26.2854,-5.49628 44.94885,-22.448 41.87457,-38.25 -0.59564,-3.06165 -1.95605,-5.85956 -3.96869,-8.34375 z"
       style="fill:#676852;fill-opacity:1"
       inkscape:connector-curvature="0" />
    <path
       id="path3799"
       d="m 804.18573,335.76422 -3.96411,2.09375 c 0.88367,1.03333 1.604,2.16956 2.12164,3.43366 4.28607,10.4671 -9.59057,26.11718 -24.00775,31.96423 -0.46167,0.18719 -1.61951,0.75098 -3.04285,1.47955 l 12.17139,-3.46161 c 15.4596,-7.55542 24.53998,-20.61963 20.54614,-30.37298 -0.81842,-1.99866 -2.12182,-3.72162 -3.82446,-5.1366 z"
       style="fill:#677121;fill-opacity:1"
       inkscape:connector-curvature="0" />
    <path
       id="path3803"
       d="m 790.37842,339.33752 -3.96405,2.09375 c 0.8836,1.03333 1.60394,2.16956 2.12158,3.43366 4.28607,10.4671 -9.59058,26.11712 -24.00775,31.96423 -0.46167,0.1872 -1.61951,0.75098 -3.04285,1.47955 l 12.17139,-3.46167 c 15.45959,-7.55535 24.53998,-20.61956 20.54614,-30.37292 -0.81842,-1.99866 -2.12176,-3.72162 -3.82446,-5.1366 z"
       style="fill:#677121;fill-opacity:1"
       inkscape:connector-curvature="0" />
    <path
       id="rect3861"
       d="m 180.3286,359.0304 c 8.29303,-2.02338 15.48553,-1.47882 19.79747,5.78717 l -2.49336,17.89672 c -6.87511,6.17328 -13.75023,4.95093 -20.62535,0.15546 z"
       style="fill:#557a00;fill-opacity:1"
       inkscape:connector-curvature="0" />
    <path
       id="path3864"
       d="m 200.6048,362.2937 c 8.15022,-1.2102 15.16667,-0.57281 18.84282,5.50812 l -2.37311,17.03375 c -6.48392,2.97479 -12.98291,5.20966 -19.63082,0.14795 z"
       style="fill:#557a00;fill-opacity:1"
       inkscape:connector-curvature="0" />
    <path
       id="path4025"
       d="m 347.40289,366.05689 c -33.45395,0 -65.49206,1.78936 -95.09269,5.0625 l -3.65622,0.40625 1.71872,3.25 c 6.67106,12.66442 16.5616,21.1134 29.06218,26.4375 12.50064,5.32409 27.57214,7.61261 45.09329,8.4375 35.04227,1.64978 79.95416,-2.63123 133.59231,-2 49.65863,0.58435 89.50788,1.87872 121.52991,2.375 l 1.125,-4.75 C 532.92615,381.60028 446.41882,366.05689 347.40289,366.05689 Z m 0,5 c 91.1695,0 171.74732,13.47863 220.09137,33.71875 -29.95202,-0.5824 -65.21191,-1.60602 -109.31128,-2.125 -53.9371,-0.63471 -98.97586,3.65216 -133.40481,2.03125 -17.21451,-0.81049 -31.76685,-3.10541 -43.40579,-8.0625 -10.45319,-4.45209 -18.48529,-11.15436 -24.49976,-20.90625 28.30747,-2.98304 58.73471,-4.65625 90.53027,-4.65625 z"
       inkscape:connector-curvature="0"
       style="opacity:0.9;fill:#191919;fill-rule:nonzero;stroke-width:5" />
    <path
       stroke-miterlimit="4"
       id="rect2864"
       d="m 207.56029,120.68762 -77.74916,12.46875 c -27.15041,4.35413 -48.947148,48.77277 -50.999455,104.84375 2.052307,56.07099 23.849045,100.48963 50.999455,104.84375 l 77.74916,12.46875 c 13.29587,0 23.99975,-10.70398 23.99975,-24 v -186.625 c 0,-13.29602 -10.70389,-24 -23.99975,-24 z"
       inkscape:connector-curvature="0"
       style="opacity:0.9;fill:#262626;stroke:#191919;stroke-width:5;stroke-miterlimit:4" />
    <path
       stroke-miterlimit="4"
       id="path3703"
       d="m 639.02435,86.468872 c -2.96917,0 -5.89325,0.332153 -8.78112,0.96875 -0.0104,-0.01001 -0.0208,-0.021 -0.0312,-0.03119 l -63.84308,12.3125 c -17.72779,6.604678 -31.99964,14.271978 -31.99964,31.999998 v 212.5625 c 0,17.72797 14.27185,25.39533 31.99964,32 l 63.84308,12.3125 c 0.0105,-0.0102 0.0207,-0.0211 0.0312,-0.0312 2.88788,0.6366 5.81196,0.96875 8.78113,0.96875 45.39551,0 82.19757,-57.36267 82.31159,-151.53125 C 721.2218,143.8316 684.41974,86.468994 639.02429,86.468994 Z"
       inkscape:connector-curvature="0"
       style="opacity:0.9;fill:#262626;stroke:#191919;stroke-width:5;stroke-miterlimit:4;stroke-dashoffset:0" />
    <path
       id="path4157"
       d="m 347.40289,107.45673 c -33.36407,0 -65.30688,-1.79999 -94.81144,-5.0625 25.6602,-48.713688 97.98503,-30.265324 205.56028,-31.531254 49.68634,-0.584717 89.54309,-1.879272 121.52991,-2.375 -47.15967,23.334167 -133.52667,38.968754 -232.27875,38.968754 z"
       inkscape:connector-curvature="0"
       style="opacity:0.9;fill:#262626" />
    <path
       id="path4159"
       d="m 347.40289,107.45673 c -3.20642,0 -6.38305,-0.0295 -9.56238,-0.0625 0.81827,-16.171025 6.42804,-30.256535 14.5936,-38.843754 4.67142,0.07562 9.49509,0.196533 14.43735,0.34375 -8.56568,8.192322 -14.59262,22.228027 -15.71857,38.562504 -1.25128,0.005 -2.49469,0 -3.75,0 z"
       inkscape:connector-curvature="0"
       style="opacity:0.5;fill:#000000" />
    <path
       stroke-miterlimit="4"
       id="path4161"
       d="m 936.08404,135.19318 -5.09368,-0.59375 c -21.54474,-2.5127 -37.68824,-25.97858 -39.28083,-54.531254 l -0.375,-7.125 5.24994,4.84375 c 15.88916,14.68042 28.30316,32.507384 37.40583,52.750004 z"
       inkscape:connector-curvature="0"
       style="fill:#212121;fill-rule:nonzero;stroke:#191919;stroke-width:5;stroke-miterlimit:4" />
    <path
       stroke-miterlimit="4"
       id="path4163"
       d="m 730.53741,124.19507 c 0,0 79.67725,22.59643 105.37629,31.98181 26.83941,9.80182 98.85888,39.14563 98.85888,39.14563 0,0 -8.74096,-42.46967 -30.48285,-57.91809 C 827.06647,82.534729 671.60388,83.550842 671.60388,83.550842"
       inkscape:connector-curvature="0"
       style="opacity:0.5;fill:none;stroke:#292929;stroke-width:6;stroke-linecap:round;stroke-linejoin:round;stroke-miterlimit:4" />
    <path
       id="path4165"
       d="m 817.03235,144.85529 -4.43744,-2.34375 c 0.98914,-1.1568 1.79547,-2.42865 2.37494,-3.84375 4.79791,-11.71704 -10.73584,-29.23597 -26.8747,-35.78125 -0.51672,-0.2096 -1.81286,-0.84064 -3.40619,-1.65625 l 13.62482,3.875 c 17.30579,8.45764 27.47046,23.08197 22.99976,34 -0.91614,2.23736 -2.37519,4.16607 -4.28119,5.75 z"
       style="fill:#677321;fill-opacity:1"
       inkscape:connector-curvature="0" />
    <path
       id="path4167"
       d="m 825.61652,149.31641 -4.43744,-2.34375 c 0.98913,-1.1568 1.79547,-2.42865 2.37494,-3.84375 4.79791,-11.71705 -10.73584,-29.23597 -26.8747,-35.78125 -0.51678,-0.2096 -1.81286,-0.84064 -3.40619,-1.65625 l 13.62482,3.875 c 17.30579,8.45764 27.47046,23.08197 22.99976,34 -0.91614,2.23736 -2.37519,4.16607 -4.28119,5.75 z"
       style="fill:url(#linearGradient4187)"
       inkscape:connector-curvature="0" />
    <path
       id="path4169"
       d="m 831.80359,150.73059 -4.43744,-2.34375 c 0.98914,-1.1568 1.79547,-2.42865 2.37494,-3.84375 4.79791,-11.71704 -10.73584,-29.23596 -26.8747,-35.78125 -0.51672,-0.20959 -1.81286,-0.84064 -3.40619,-1.65625 l 13.62482,3.875 c 17.30579,8.45764 27.47046,23.08197 22.99976,34 -0.91614,2.23737 -2.37518,4.16608 -4.28119,5.75 z"
       style="fill:#677121;fill-opacity:1"
       inkscape:connector-curvature="0" />
    <path
       id="path4171"
       d="m 848.71002,155.00391 -6.18744,-1.84375 c 0.96015,-1.71283 1.65448,-3.53229 2.03125,-5.46875 3.11939,-16.03388 -20.96197,-34.28357 -43.03082,-38.5 -3.39496,-0.64863 -28.88397,-8.57599 -32.1579,-8.80445 v -4.124997 l 41.43903,12.148197 c 26.2854,5.49627 44.94885,22.44799 41.87457,38.25 -0.59564,3.06164 -1.95605,5.85955 -3.96869,8.34375 z"
       style="fill:url(#linearGradient4191)"
       inkscape:connector-curvature="0" />
    <path
       id="path4173"
       d="m 848.71002,155.00391 -6.18744,-1.84375 c 0.96015,-1.71283 1.65448,-3.53229 2.03125,-5.46875 3.11939,-16.03388 -20.96197,-34.28357 -43.03082,-38.5 -3.39496,-0.64863 -28.88397,-8.57599 -32.1579,-8.80445 v -4.124997 l 41.43903,12.148197 c 26.2854,5.49627 44.94885,22.44799 41.87457,38.25 -0.59564,3.06164 -1.95605,5.85955 -3.96869,8.34375 z"
       style="fill:#676852;fill-opacity:1"
       inkscape:connector-curvature="0" />
    <path
       id="path4175"
       d="m 804.18573,140.23584 -3.96411,-2.09369 c 0.88367,-1.03339 1.604,-2.16956 2.12164,-3.43372 4.28607,-10.4671 -9.59057,-26.11718 -24.00775,-31.96417 -0.46167,-0.18725 -1.61951,-0.75104 -3.04285,-1.47961 l 12.17139,3.46161 c 15.4596,7.55542 24.53998,20.61963 20.54614,30.37298 -0.81842,1.99866 -2.12182,3.72162 -3.82446,5.1366 z"
       style="fill:#676a21;fill-opacity:1"
       inkscape:connector-curvature="0" />
    <path
       id="path4177"
       d="m 790.37842,136.66254 -3.96405,-2.09375 c 0.8836,-1.03333 1.60394,-2.16956 2.12158,-3.43366 4.28607,-10.4671 -9.59058,-26.11719 -24.00775,-31.964231 -0.46167,-0.187195 -1.61951,-0.750977 -3.04285,-1.479553 l 12.17139,3.461674 c 15.45959,7.55535 24.53998,20.61956 20.54614,30.37292 -0.81842,1.99866 -2.12176,3.72162 -3.82446,5.1366 z"
       style="fill:#677321;fill-opacity:1"
       inkscape:connector-curvature="0" />
    <path
       id="path4179"
       d="m 180.3286,116.96967 c 8.29303,2.02337 15.48553,1.47882 19.79747,-5.78717 L 197.63271,93.285767 C 190.7576,87.112488 183.88248,88.334839 177.00736,93.13031 l 3.32124,23.83935 z"
       style="fill:#557a00;fill-opacity:1"
       inkscape:connector-curvature="0" />
    <path
       id="path4181"
       d="m 200.6048,113.70642 c 8.15022,1.21021 15.16667,0.57282 18.84282,-5.50812 l -2.37311,-17.033749 c -6.48392,-2.974792 -12.98291,-5.209656 -19.63082,-0.147949 z"
       style="fill:#557a00;fill-opacity:1"
       inkscape:connector-curvature="0" />
    <path
       id="path4183"
       d="m 347.40289,109.94318 c -33.45395,0 -65.49206,-1.78937 -95.09269,-5.0625 l -3.65622,-0.40625 1.71872,-3.25 c 6.67106,-12.664433 16.5616,-21.113407 29.06218,-26.437504 12.50064,-5.324097 27.57214,-7.61261 45.09329,-8.4375 35.04227,-1.64978 79.95416,2.631226 133.59231,2 49.65863,-0.584412 89.50788,-1.878723 121.52991,-2.375 l 1.125,4.75 C 532.92615,94.39978 446.41882,109.94318 347.40289,109.94318 Z m 0,-5 c 91.1695,0 171.74732,-13.478642 220.09137,-33.718754 -29.95202,0.582397 -65.21191,1.606018 -109.31128,2.125 -53.9371,0.634705 -98.97586,-3.652161 -133.40481,-2.03125 -17.21451,0.810486 -31.76685,3.105408 -43.40579,8.0625 -10.45319,4.452087 -18.48529,11.154358 -24.49976,20.906254 28.30747,2.98303 58.73471,4.65625 90.53027,4.65625 z"
       inkscape:connector-curvature="0"
       style="opacity:0.9;fill:#191919;fill-rule:nonzero;stroke-width:5" />
  </g>
</svg>
