<svg xmlns="http://www.w3.org/2000/svg" xmlns:xlink="http://www.w3.org/1999/xlink" width="476.15" height="960"><defs><linearGradient id="d"><stop offset="0"/><stop stop-color="#b3b3b3" stop-opacity="0" offset="1"/></linearGradient><linearGradient id="c"><stop offset="0"/><stop stop-color="#ccc" stop-opacity="0" offset="1"/></linearGradient><linearGradient id="b"><stop stop-color="#333" offset="0"/><stop stop-color="gray" stop-opacity="0" offset="1"/></linearGradient><linearGradient id="a"><stop stop-color="#1a1a1a" offset="0"/><stop stop-color="#f30000" stop-opacity="0" offset="1"/></linearGradient><linearGradient xlink:href="#a" id="e" y2="320.93" x2="864.66" y1="328.02" x1="889.62" gradientTransform="scale(.92933 1.07604)" gradientUnits="userSpaceOnUse"/><linearGradient xlink:href="#a" id="k" y2="329.95" x2="810.15" y1="333.27" x1="875.37" gradientTransform="scale(.92933 1.07604)" gradientUnits="userSpaceOnUse"/><linearGradient xlink:href="#a" id="g" y2="317.56" x2="850.61" y1="322.76" x1="919.64" gradientTransform="scale(.92933 1.07604)" gradientUnits="userSpaceOnUse"/><linearGradient xlink:href="#a" id="n" y2="121.43" x2="864.66" y1="114.35" x1="889.62" gradientTransform="scale(.92933 1.07604)" gradientUnits="userSpaceOnUse"/><linearGradient xlink:href="#a" id="o" y2="126.73" x2="908.94" y1="126.79" x1="921.61" gradientTransform="scale(.92933 1.07604)" gradientUnits="userSpaceOnUse"/><linearGradient xlink:href="#a" id="p" y2="124.8" x2="850.61" y1="119.61" x1="919.64" gradientTransform="scale(.92933 1.07604)" gradientUnits="userSpaceOnUse"/><linearGradient xlink:href="#a" id="q" y2="154.43" x2="714.22" y1="146.05" x1="725.51" gradientTransform="scale(1.19329 .83802)" gradientUnits="userSpaceOnUse"/><linearGradient xlink:href="#a" id="r" y2="195.35" x2="674.18" y1="134.53" x1="711.67" gradientTransform="scale(1.19329 .83802)" gradientUnits="userSpaceOnUse"/><linearGradient xlink:href="#a" id="s" y2="118.96" x2="818.42" y1="120" x1="897.93" gradientTransform="scale(.92933 1.07604)" gradientUnits="userSpaceOnUse"/><linearGradient xlink:href="#a" id="t" y2="112.41" x2="810.15" y1="109.09" x1="875.37" gradientTransform="scale(.92933 1.07604)" gradientUnits="userSpaceOnUse"/><linearGradient xlink:href="#a" id="u" y2="96.97" x2="197.92" y1="88.8" x1="223.77" gradientTransform="scale(.89436 1.11811)" gradientUnits="userSpaceOnUse"/><linearGradient xlink:href="#a" id="v" y2="92.34" x2="215.45" y1="89.06" x1="239.46" gradientTransform="scale(.91644 1.09118)" gradientUnits="userSpaceOnUse"/><linearGradient xlink:href="#a" id="f" y2="315.63" x2="908.94" y1="315.57" x1="921.61" gradientTransform="scale(.92933 1.07604)" gradientUnits="userSpaceOnUse"/><linearGradient xlink:href="#a" id="h" y2="413.58" x2="714.22" y1="421.96" x1="725.51" gradientTransform="scale(1.19329 .83802)" gradientUnits="userSpaceOnUse"/><linearGradient xlink:href="#a" id="i" y2="372.65" x2="674.18" y1="433.48" x1="711.67" gradientTransform="scale(1.19329 .83802)" gradientUnits="userSpaceOnUse"/><linearGradient xlink:href="#a" id="j" y2="323.4" x2="818.42" y1="322.36" x1="897.93" gradientTransform="scale(.92933 1.07604)" gradientUnits="userSpaceOnUse"/><linearGradient xlink:href="#a" id="l" y2="328.75" x2="197.92" y1="336.91" x1="223.77" gradientTransform="scale(.89436 1.11811)" gradientUnits="userSpaceOnUse"/><linearGradient xlink:href="#a" id="m" y2="343.89" x2="215.45" y1="347.17" x1="239.46" gradientTransform="scale(.91644 1.09118)" gradientUnits="userSpaceOnUse"/></defs><g transform="rotate(90 238 238)"><path d="M557.59 7c-1.51 0-4.72.3-6.47.94l-3.5 1.5 8.66 35.94-124.82.28-7.34-.03c-4.91-.04-9.86-.1-14.84-.22-7.3-.17-14.67-.42-22.07-.72l-1.18-.06c-14.94-.64-30.01-1.5-45.03-2.44-20.33-1.29-40.52-2.71-60.13-3.88-14.53-.86-28.73-1.58-42.37-2a749.5 749.5 0 0 0-27.25-.4c-4.32.02-8.57.09-12.72.22a371.1 371.1 0 0 0-19.1 1.16 451.5 451.5 0 0 0-19.59 2.18h-.03a638.7 638.7 0 0 0-38.6 6.44h-.02a765.5 765.5 0 0 0-23.6 5h-.03a893.08 893.08 0 0 0-29.25 7.15 738.52 738.52 0 0 0-18.1 5c-2.47.72-3.8 1.13-3.8 1.13l-13.7 3.75c-.9.25-1.77.7-2.62 1.31-.28.21-.56.44-.84.69-1.1.98-2.15 2.27-3.16 3.84v.03c-.5.79-1.02 1.64-1.5 2.57v.03a47.1 47.1 0 0 0-1.4 2.97v.03c-3.67 8.5-6.62 21.13-8.94 36.21v.04l-.1.71c-.5 3.34-.99 6.8-1.43 10.35l-.1.72c-.5 4.04-.94 8.2-1.37 12.47v.03c-.21 2.13-.43 4.3-.62 6.47v.03c-.2 2.17-.39 4.35-.57 6.56v.03c-.36 4.44-.68 8.95-.97 13.5v.03c-.87 13.69-1.46 27.8-1.78 41.56v.04c-.21 9.19-.31 18.2-.31 26.9l.03 2.94-.03 2.94c0 8.7.1 17.71.31 26.9v.03c.32 13.78.91 27.88 1.78 41.57v.03c.3 4.55.61 9.06.97 13.5v.03l.56 6.56v.03c.2 2.18.42 4.34.63 6.47v.03c.43 4.27.87 8.43 1.37 12.47l.1.72c.44 3.55.93 7.01 1.44 10.34.03.24.05.49.09.72v.03c2.32 15.1 5.27 27.71 8.94 36.22v.03a47.1 47.1 0 0 0 1.4 2.97v.03c.48.93 1 1.78 1.5 2.57v.03c1 1.57 2.06 2.86 3.16 3.84.28.25.56.48.84.69a8.11 8.11 0 0 0 2.63 1.31l13.69 3.75s1.33.41 3.8 1.13c3.72 1.07 9.98 2.86 18.1 5a912.52 912.52 0 0 0 29.25 7.15h.03a836.75 836.75 0 0 0 23.6 5h.03a639.04 639.04 0 0 0 38.6 6.44h.02a451.5 451.5 0 0 0 19.6 2.19 371.04 371.04 0 0 0 31.8 1.37c8.8.05 17.89-.11 27.26-.4 13.64-.42 27.84-1.14 42.37-2 19.6-1.17 39.8-2.6 60.13-3.88 15.02-.94 30.1-1.8 45.03-2.44.4-.01.79-.04 1.18-.06 7.4-.3 14.77-.55 22.07-.72 4.98-.11 9.93-.18 14.84-.22l7.34-.03 124.82.28-8.66 35.94 3.5 1.5c1.75.63 4.96.93 6.47.94.85 0 1.75-.07 2.69-.25.3-.06.62-.14.93-.22l.94-.25c.63-.2 1.26-.42 1.88-.69 1.82-.79 3.53-1.93 4.78-3.3 0-.02.02-.03.03-.04a8.31 8.31 0 0 0 1.47-2.28l12.15-31.31 109.94.25c.75.37 1.47.74 2.22 1.09a93.39 93.39 0 0 0 13.22 5.03c5.1 1.5 10.18 2.55 15.34 3.25a139.66 139.66 0 0 0 13.5 1.16c3.06.14 6.14.21 9.31.25 6.35.07 12.98 0 20 0 10.41 0 20.32-.53 29.78-1.57a210.87 210.87 0 0 0 37-7.22 180.7 180.7 0 0 0 14.19-4.78c1.52-.58 3.04-1.16 4.53-1.78a164.87 164.87 0 0 0 12.94-6.06 155.52 155.52 0 0 0 11.97-7 147.49 147.49 0 0 0 30.4-26v-.03c.97-1.1 1.94-2.2 2.88-3.31v-.03c.94-1.12 1.87-2.26 2.78-3.41v-.03c2.72-3.46 5.31-7.02 7.75-10.72v-.03c.8-1.23 1.63-2.47 2.4-3.72v-.03a167.9 167.9 0 0 0 6.63-11.66v-.03a176.6 176.6 0 0 0 2-4.03v-.03c.65-1.35 1.32-2.72 1.94-4.1v-.03c1.24-2.76 2.44-5.55 3.56-8.4v-.03c.56-1.43 1.1-2.87 1.62-4.32v-.03a202.88 202.88 0 0 0 3.04-8.81v-.03c.47-1.49.93-3 1.37-4.5v-.03c.44-1.51.87-3.03 1.28-4.56v-.04c1.24-4.6 2.37-9.3 3.35-14.09v-.03c.32-1.59.6-3.2.9-4.81v-.03a285.52 285.52 0 0 0 4.16-35.22v-.03c.1-1.73.18-3.48.25-5.22v-.03c.14-3.5.25-7.01.28-10.57v-.03c.02-1.78.01-3.58 0-5.37 0-.64-.02-1.27-.03-1.9l.03-1.92c.01-1.8.02-3.59 0-5.37v-.03c-.03-3.56-.14-7.07-.28-10.56v-.04c-.07-1.74-.15-3.49-.25-5.21v-.04c-.7-12.15-2.08-23.9-4.16-35.21v-.04c-.3-1.6-.58-3.22-.9-4.8v-.04c-.98-4.79-2.11-9.48-3.35-14.1v-.02a221.4 221.4 0 0 0-1.28-4.57v-.03c-.44-1.5-.9-3-1.37-4.5v-.03a209.07 209.07 0 0 0-3.04-8.81v-.03a197 197 0 0 0-1.62-4.32v-.03a187.44 187.44 0 0 0-3.56-8.4v-.03c-.62-1.38-1.29-2.74-1.94-4.1v-.03a176.6 176.6 0 0 0-2-4.03v-.03c-2.06-4-4.28-7.88-6.63-11.66V110c-.77-1.25-1.6-2.49-2.4-3.72v-.03c-2.44-3.7-5.03-7.26-7.75-10.72v-.03c-.9-1.15-1.84-2.28-2.78-3.4v-.04c-.94-1.12-1.9-2.22-2.88-3.3v-.04a147.1 147.1 0 0 0-34.28-28.44 155.52 155.52 0 0 0-21.03-10.62c-1.49-.62-3-1.2-4.53-1.78a180.68 180.68 0 0 0-19.16-6.16 210.88 210.88 0 0 0-20.9-4.37 237.1 237.1 0 0 0-11.13-1.47A274.28 274.28 0 0 0 766 34.3c-7.02 0-13.65-.07-20 0a273.52 273.52 0 0 0-13.87.5c-3.01.22-6 .51-8.94.9a102.27 102.27 0 0 0-19.72 4.67 93.39 93.39 0 0 0-8.84 3.62c-.75.35-1.47.72-2.22 1.1l-109.94.24-12.15-31.3a8.31 8.31 0 0 0-1.47-2.29l-.03-.03a14.07 14.07 0 0 0-4.78-3.31c-.62-.27-1.25-.5-1.88-.7l-.94-.24c-.31-.08-.62-.16-.93-.22-.94-.18-1.84-.25-2.7-.25z" stroke="#191919" stroke-width="14"/><path d="M557.59 7c-1.51 0-4.72.3-6.47.94l-3.5 1.5 8.66 35.84-124.82.28c-77.96.17-166.52-11.5-232.93-9.5s-152.12 28-152.12 28l-13.7 3.78C13.48 73.14 7 165.21 7 234.63l.03 3.37-.03 3.38c0 69.4 6.47 161.48 25.72 166.78l13.69 3.78s85.7 26 152.12 28c66.41 2 154.97-9.67 232.93-9.5l124.82.28-8.66 35.84 3.5 1.5c1.75.63 4.96.93 6.47.94.85 0 1.75-.07 2.69-.25a18.38 18.38 0 0 0 3.75-1.16 14 14 0 0 0 4.78-3.28l.03-.03a8.31 8.31 0 0 0 1.47-2.28l12.15-31.25 109.94.25c23.9 11.94 45.51 10.72 73.6 10.72 133.24 0 187.62-86.59 186.99-201.38l-.03-2.34.03-2.34c.63-114.8-53.75-201.38-187-201.38-28.08 0-49.7-1.22-73.6 10.72l-109.93.25L570.31 14a8.32 8.32 0 0 0-1.47-2.28l-.03-.03a14 14 0 0 0-4.78-3.28 17.94 17.94 0 0 0-2.82-.94c-.31-.08-.62-.16-.93-.22-.94-.18-1.84-.25-2.7-.25z" fill="red"/><path d="M347.4 368.54c-33.36 0-65.3 1.8-94.8 5.07 25.65 48.71 97.98 30.26 205.55 31.53 49.69.58 89.54 1.88 121.53 2.37-47.16-23.33-133.53-38.97-232.28-38.97z" opacity=".9" fill="#262626"/><path d="M347.4 368.54c-3.2 0-6.38.03-9.56.07.82 16.17 6.43 30.25 14.6 38.84 4.67-.08 9.49-.2 14.43-.34-8.56-8.2-14.6-22.23-15.72-38.57h-3.75z" opacity=".5"/><path d="M936.08 340.8l-5.09.6c-21.54 2.51-37.69 25.98-39.28 54.53l-.38 7.13 5.25-4.85c15.9-14.68 28.3-32.5 37.41-52.75z" fill="#212121" stroke="#191919" stroke-width="5"/><path d="M730.54 351.8s79.67-22.6 105.37-31.98c26.84-9.8 98.86-39.14 98.86-39.14s-8.74 42.47-30.48 57.92c-77.22 54.87-232.69 53.85-232.69 53.85" opacity=".5" fill="none" stroke="#292929" stroke-width="6" stroke-linecap="round" stroke-linejoin="round"/><path d="M817.03 331.14l-4.44 2.35c1 1.16 1.8 2.43 2.38 3.84 4.8 11.72-10.74 29.24-26.87 35.78-.52.21-1.82.84-3.41 1.66l13.62-3.88c17.31-8.45 27.47-23.08 23-34a14.69 14.69 0 0 0-4.28-5.75z" fill="url(#e)"/><path d="M825.62 326.68l-4.44 2.35c.99 1.15 1.8 2.43 2.37 3.84 4.8 11.72-10.73 29.24-26.87 35.78-.52.21-1.81.84-3.4 1.66l13.62-3.88c17.3-8.45 27.47-23.08 23-34a14.69 14.69 0 0 0-4.28-5.75z" fill="url(#f)"/><path d="M831.8 325.27l-4.43 2.34c.99 1.16 1.8 2.43 2.37 3.85 4.8 11.71-10.73 29.23-26.87 35.78-.52.2-1.82.84-3.41 1.65l13.63-3.87c17.3-8.46 27.47-23.08 23-34a14.69 14.69 0 0 0-4.29-5.75z" fill="url(#g)"/><path d="M848.71 321l-6.19 1.84a18.28 18.28 0 0 1 2.03 5.47c3.12 16.03-20.96 34.28-43.03 38.5-3.4.65-28.88 8.57-32.15 8.8v4.13l41.43-12.15c26.29-5.5 44.95-22.45 41.88-38.25a18.91 18.91 0 0 0-3.97-8.34z" fill="url(#h)"/><path d="M848.71 321l-6.19 1.84a18.28 18.28 0 0 1 2.03 5.47c3.12 16.03-20.96 34.28-43.03 38.5-3.4.65-28.88 8.57-32.15 8.8v4.13l41.43-12.15c26.29-5.5 44.95-22.45 41.88-38.25a18.91 18.91 0 0 0-3.97-8.34z" fill="url(#i)"/><path d="M804.19 335.76l-3.97 2.1c.89 1.03 1.6 2.17 2.12 3.43 4.29 10.47-9.59 26.12-24 31.97-.47.18-1.62.75-3.05 1.48l12.17-3.47c15.46-7.55 24.54-20.62 20.55-30.37-.82-2-2.12-3.72-3.82-5.14z" fill="url(#j)"/><path d="M790.38 339.34l-3.97 2.1c.89 1.02 1.6 2.16 2.13 3.42 4.28 10.47-9.6 26.12-24.01 31.97-.46.19-1.62.75-3.04 1.48l12.17-3.46c15.46-7.56 24.54-20.62 20.54-30.38-.82-2-2.12-3.72-3.82-5.13z" fill="url(#k)"/><path d="M180.33 359.03c8.3-2.02 15.48-1.48 19.8 5.79l-2.5 17.9c-6.87 6.17-13.75 4.95-20.62.15z" fill="url(#l)"/><path d="M200.6 362.3c8.16-1.22 15.17-.58 18.85 5.5l-2.38 17.04c-6.48 2.97-12.98 5.2-19.63.14z" fill="url(#m)"/><path d="M347.4 366.06c-33.45 0-65.49 1.79-95.09 5.06l-3.66.4 1.72 3.26c6.67 12.66 16.56 21.1 29.06 26.43 12.5 5.33 27.58 7.62 45.1 8.44 35.04 1.65 79.95-2.63 133.59-2 49.66.58 89.5 1.88 121.53 2.38l1.13-4.75c-47.85-23.68-134.36-39.22-233.38-39.22zm0 5c91.17 0 171.75 13.48 220.1 33.72-29.96-.59-65.22-1.61-109.32-2.13-53.93-.63-98.97 3.65-133.4 2.03-17.22-.8-31.77-3.1-43.4-8.06-10.46-4.45-18.5-11.15-24.5-20.9a867.23 867.23 0 0 1 90.52-4.66z" opacity=".9" fill="#191919"/><path d="M207.56 120.69l-77.75 12.47c-27.15 4.35-48.95 48.77-51 104.84 2.05 56.07 23.85 100.49 51 104.84l77.75 12.47c13.3 0 24-10.7 24-24V144.7c0-13.3-10.7-24-24-24zM639.02 86.47c-2.96 0-5.89.33-8.78.97l-.03-.03-63.84 12.3c-17.73 6.61-32 14.28-32 32v212.57c0 17.73 14.27 25.4 32 32l63.84 12.31.03-.03c2.9.64 5.82.97 8.78.97 45.4 0 82.2-57.36 82.32-151.53-.12-94.17-36.92-151.53-82.32-151.53z" opacity=".9" fill="#262626" stroke="#191919" stroke-width="5"/><path d="M347.4 107.46c-33.36 0-65.3-1.8-94.8-5.07 25.65-48.7 97.98-30.26 205.55-31.53 49.69-.58 89.54-1.88 121.53-2.37-47.16 23.33-133.53 38.97-232.28 38.97z" opacity=".9" fill="#262626"/><path d="M347.4 107.46c-3.2 0-6.38-.03-9.56-.07.82-16.17 6.43-30.25 14.6-38.84 4.67.08 9.49.2 14.43.34-8.56 8.2-14.6 22.23-15.72 38.57h-3.75z" opacity=".5"/><path d="M936.08 135.2l-5.09-.6c-21.54-2.51-37.69-25.98-39.28-54.53l-.38-7.13 5.25 4.85c15.9 14.68 28.3 32.5 37.41 52.75z" fill="#212121" stroke="#191919" stroke-width="5"/><path d="M730.54 124.2s79.67 22.6 105.37 31.98c26.84 9.8 98.86 39.14 98.86 39.14s-8.74-42.47-30.48-57.92C827.07 82.53 671.6 83.55 671.6 83.55" opacity=".5" fill="none" stroke="#292929" stroke-width="6" stroke-linecap="round" stroke-linejoin="round"/><path d="M817.03 144.86l-4.44-2.35c1-1.16 1.8-2.43 2.38-3.84 4.8-11.72-10.74-29.24-26.87-35.78-.52-.21-1.82-.84-3.41-1.66l13.62 3.88c17.31 8.45 27.47 23.08 23 34a14.69 14.69 0 0 1-4.28 5.75z" fill="url(#n)"/><path d="M825.62 149.32l-4.44-2.35c.99-1.15 1.8-2.43 2.37-3.84 4.8-11.72-10.73-29.24-26.87-35.78a60.6 60.6 0 0 1-3.4-1.66l13.62 3.88c17.3 8.45 27.47 23.08 23 34a14.69 14.69 0 0 1-4.28 5.75z" fill="url(#o)"/><path d="M831.8 150.73l-4.43-2.34c.99-1.16 1.8-2.43 2.37-3.85 4.8-11.71-10.73-29.23-26.87-35.78a60.6 60.6 0 0 1-3.41-1.65l13.63 3.87c17.3 8.46 27.47 23.08 23 34a14.69 14.69 0 0 1-4.29 5.75z" fill="url(#p)"/><path d="M848.71 155l-6.19-1.84a18.28 18.28 0 0 0 2.03-5.47c3.12-16.03-20.96-34.28-43.03-38.5-3.4-.65-28.88-8.57-32.15-8.8v-4.13l41.43 12.15c26.29 5.5 44.95 22.45 41.88 38.25a18.91 18.91 0 0 1-3.97 8.34z" fill="url(#q)"/><path d="M848.71 155l-6.19-1.84a18.28 18.28 0 0 0 2.03-5.47c3.12-16.03-20.96-34.28-43.03-38.5-3.4-.65-28.88-8.57-32.15-8.8v-4.13l41.43 12.15c26.29 5.5 44.95 22.45 41.88 38.25a18.91 18.91 0 0 1-3.97 8.34z" fill="url(#r)"/><path d="M804.19 140.24l-3.97-2.1c.89-1.03 1.6-2.17 2.12-3.43 4.29-10.47-9.59-26.12-24-31.97-.47-.18-1.62-.75-3.05-1.48l12.17 3.47c15.46 7.55 24.54 20.62 20.55 30.37-.82 2-2.12 3.72-3.82 5.14z" fill="url(#s)"/><path d="M790.38 136.66l-3.97-2.1c.89-1.02 1.6-2.16 2.13-3.42 4.28-10.47-9.6-26.12-24.01-31.97a54.1 54.1 0 0 1-3.04-1.48l12.17 3.46c15.46 7.56 24.54 20.62 20.54 30.38-.82 2-2.12 3.72-3.82 5.13z" fill="url(#t)"/><path d="M180.33 116.97c8.3 2.02 15.48 1.48 19.8-5.79l-2.5-17.9c-6.87-6.17-13.75-4.95-20.62-.15l3.32 23.84z" fill="url(#u)"/><path d="M200.6 113.7c8.16 1.22 15.17.58 18.85-5.5l-2.38-17.04c-6.48-2.97-12.98-5.2-19.63-.14z" fill="url(#v)"/><path d="M347.4 109.94a870.2 870.2 0 0 1-95.09-5.06l-3.66-.4 1.72-3.26c6.67-12.66 16.56-21.1 29.06-26.43 12.5-5.33 27.58-7.62 45.1-8.44 35.04-1.65 79.95 2.63 133.59 2 49.66-.58 89.5-1.88 121.53-2.38l1.13 4.75c-47.85 23.68-134.36 39.22-233.38 39.22zm0-5c91.17 0 171.75-13.48 220.1-33.72-29.96.59-65.22 1.61-109.32 2.13-53.93.63-98.97-3.65-133.4-2.03-17.22.8-31.77 3.1-43.4 8.06-10.46 4.45-18.5 11.16-24.5 20.9a867.23 867.23 0 0 0 90.52 4.66z" opacity=".9" fill="#191919"/></g></svg>