<svg
   xmlns:dc="http://purl.org/dc/elements/1.1/"
   xmlns:cc="http://creativecommons.org/ns#"
   xmlns:rdf="http://www.w3.org/1999/02/22-rdf-syntax-ns#"
   xmlns:svg="http://www.w3.org/2000/svg"
   xmlns="http://www.w3.org/2000/svg"
   xmlns:sodipodi="http://sodipodi.sourceforge.net/DTD/sodipodi-0.dtd"
   xmlns:inkscape="http://www.inkscape.org/namespaces/inkscape"
   viewBox="0 0 38.48201 100.8862"
   version="1.1"
   id="svg8"
   inkscape:version="0.92.4 (5da689c313, 2019-01-14)"
   sodipodi:docname="missile.svg">
  <defs
     id="defs2" />
  <sodipodi:namedview
     id="base"
     pagecolor="#ffffff"
     bordercolor="#666666"
     borderopacity="1.0"
     inkscape:pageopacity="0.0"
     inkscape:pageshadow="2"
     inkscape:zoom="5.6568542"
     inkscape:cx="-10.774652"
     inkscape:cy="60.077344"
     inkscape:document-units="mm"
     inkscape:current-layer="layer1"
     showgrid="false"
     showguides="false"
     inkscape:window-width="1280"
     inkscape:window-height="961"
     inkscape:window-x="1912"
     inkscape:window-y="-8"
     inkscape:window-maximized="1"
     fit-margin-top="0"
     fit-margin-left="0"
     fit-margin-right="0"
     fit-margin-bottom="0" />
  <metadata
     id="metadata5">
    <rdf:RDF>
      <cc:Work
         rdf:about="">
        <dc:format>image/svg+xml</dc:format>
        <dc:type
           rdf:resource="http://purl.org/dc/dcmitype/StillImage" />
        <dc:title></dc:title>
      </cc:Work>
    </rdf:RDF>
  </metadata>
  <g
     inkscape:label="Layer 1"
     inkscape:groupmode="layer"
     id="layer1"
     transform="translate(-29.47049,-185.07785)">
    <ellipse
       style="opacity:1;fill:#d40000;fill-opacity:1;stroke:#000000;stroke-width:0.829548;stroke-miterlimit:4;stroke-dasharray:none;stroke-opacity:1"
       id="path827"
       cx="48.734756"
       cy="-242.03606"
       rx="12.012689"
       ry="32.551613"
       transform="scale(1,-1)" />
    <path
       style="fill:#008080;fill-opacity:1;stroke:#000000;stroke-width:0.2656472;stroke-linecap:butt;stroke-linejoin:miter;stroke-miterlimit:4;stroke-dasharray:none;stroke-opacity:1"
       d="m 57.626121,219.10564 c 12.48713,-10.38689 9.9897,-15.92655 9.9897,-15.92655 l -15.817026,6.9246 z"
       id="path835"
       inkscape:connector-curvature="0" />
    <path
       style="fill:#000000;stroke:#000000;stroke-width:0.20994377px;stroke-linecap:butt;stroke-linejoin:miter;stroke-opacity:1"
       d="m 59.505121,257.53665 -21.278232,0.12841 c 1.310723,8.55685 5.130493,17.0099 10.20768,21.05882 7.767502,-6.4707 9.868332,-13.73918 11.070552,-21.18723 z"
       id="path4614"
       inkscape:connector-curvature="0"
       sodipodi:nodetypes="cccc" />
    <rect
       style="opacity:1;fill:#000000;fill-opacity:1;stroke:#000000;stroke-width:0.67415768;stroke-miterlimit:4;stroke-dasharray:none;stroke-opacity:1"
       id="rect4620"
       width="0.0012344522"
       height="6.8373852"
       x="48.462067"
       y="-285.68759"
       transform="scale(1,-1)" />
    <path
       style="fill:#000000;stroke:#000000;stroke-width:0.25373939px;stroke-linecap:butt;stroke-linejoin:miter;stroke-opacity:1"
       d="m 39.087068,222.82012 19.097823,0.0223 c -2.07943,-6.77874 -4.89974,-12.33651 -9.506445,-13.25295 -5.580491,1.81134 -7.57565,7.53221 -9.591378,13.23065 z"
       id="path4636"
       inkscape:connector-curvature="0"
       sodipodi:nodetypes="cccc" />
    <path
       style="fill:#008080;fill-opacity:1;stroke:#000000;stroke-width:0.26564723;stroke-linecap:butt;stroke-linejoin:miter;stroke-miterlimit:4;stroke-dasharray:none;stroke-opacity:1"
       d="M 39.79687,219.39619 C 27.309741,209.00934 29.807169,203.46966 29.807169,203.46966 l 15.817026,6.92459 z"
       id="path835-3"
       inkscape:connector-curvature="0" />
    <g
       style="fill:#000000;stroke:none"
       transform="matrix(0.0010848,0,0,9.8195615e-4,41.20959,236.20621)"
       id="g12">
      <path
         inkscape:connector-curvature="0"
         d="m 2820.5727,12979.428 c -686,-427 -1262,-952 -1747,-1591 -800,-1053 -1246,-2313 -1292,-3650 l -7,-200 h 2241 2242 v 45 c 0,25 5,89 11,143 63,583 374,1097 855,1413 l 94,62 -29,51 c -725,1263 -2204,3812 -2213,3813 -7,1 -77,-38 -155,-86 z"
         id="path4-2" />
      <path
         inkscape:connector-curvature="0"
         d="m 10196.088,12593.467 c -404.0003,-701 -1969.0003,-3412.0009 -1973.0003,-3419.0009 -2,-4 33,-30 77,-59 430,-280 739,-732 838,-1225 22,-110 41,-269 41,-340 v -45 h 2241.9993 2241 l -7,198 c -23,649 -134,1264 -337,1857 -452,1325.0009 -1323,2461.0009 -2494,3251.0009 -171,115 -346.999,224 -361.999,224 -6,0 -125,-199 -266,-442 z"
         id="path6-6" />
      <path
         inkscape:connector-curvature="0"
         d="m 6524.6146,8516.7708 c -696.0214,-99.4081 -1202.3124,-755.0791 -1130.1324,-1461.5117 32.9965,-329.9506 156.7336,-597.5066 381.5228,-829.1065 225.8202,-230.5423 486.6993,-357.4464 807.3847,-391.2875 371.2114,-40.1863 756.8588,98.3507 1032.1739,370.1369 483.6059,478.0052 543.4122,1235.1995 141.2665,1787.232 -283.5642,389.1725 -760.9833,592.219 -1232.2155,524.5368 z"
         id="path8-2"
         style="stroke-width:1.0442549" />
      <path
         inkscape:connector-curvature="0"
         d="m 5210.539,3977.7078 c -1800,-3117.00002 -1726,-2986.99997 -1711,-3000.99997 24,-22.00004 325,-179.00005 494,-258.00005 679,-315 1358,-496.99998 2136,-573.99998 249,-24 844,-24 1098,1 764,73 1449,255.99998 2121,565.99998 144,66 464,233.00001 501,261.00005 l 22,17 -1078,1867.99997 c -593,1028 -1096,1899 -1117,1935 l -38,66 -118,-58 c -204,-100 -422,-163 -654,-188 -339,-37 -716,32 -1032,188 l -116,57 z"
         id="path10" />
    </g>
    <g
       id="g849"
       transform="matrix(1,0,0,-1,35.846677,468.80546)">
      <path
         style="fill:#fef6e8;stroke-width:0.04779842"
         d="m 14.632148,261.56945 c 0.57166,0.0361 1.210237,0.18097 1.974373,0.44795 1.022231,0.35715 1.864929,0.83442 2.685147,1.52078 0.923124,0.77247 1.598505,1.67895 2.00496,2.69101 0.237217,0.59066 0.311129,1.11677 0.311419,2.21666 4.07e-4,1.54161 -0.06272,1.86552 -0.679606,3.48737 -0.418258,1.09963 -0.590729,1.65777 -0.689869,2.23252 -0.102077,0.59177 -0.099,1.74077 0.0065,2.42682 0.120549,0.78388 0.09414,0.81013 -0.466188,0.46325 -1.512304,-0.93622 -2.547075,-2.38599 -2.811381,-3.93888 -0.102521,-0.60235 -0.119059,-0.59894 -0.285913,0.0589 -0.184451,0.72718 -0.235421,1.76057 -0.150672,3.05478 0.143185,2.18657 0.08356,2.91189 -0.322474,3.92311 -0.397296,0.98945 -0.979474,1.76633 -1.860115,2.4822 -0.518216,0.42126 -1.429542,0.96 -1.721133,1.01746 -0.09901,0.0195 -0.219348,0.0489 -0.267407,0.0653 -0.14523,0.0496 -0.159046,-0.10663 -0.04332,-0.48985 0.216289,-0.71625 0.281326,-1.20764 0.282393,-2.13362 8.48e-4,-0.73574 -0.0197,-0.98618 -0.118834,-1.44819 -0.292251,-1.36207 -0.939273,-2.69082 -1.868397,-3.83699 -0.46663,-0.57563 -0.9852369,-1.1096 -1.0326945,-1.06328 -0.019521,0.019 -0.1017086,0.16157 -0.1826379,0.3167 -0.5164753,0.99003 -1.3743897,1.90101 -2.3013319,2.44368 -0.3947692,0.23112 -1.1843972,0.5505 -1.3610156,0.5505 -0.1016412,0 -0.1131479,-0.0179 -0.090406,-0.14103 0.014332,-0.0776 0.088478,-0.28179 0.1647696,-0.45383 0.2189016,-0.49364 0.3101039,-1.10053 0.2757888,-1.8352 -0.034866,-0.74645 -0.1310563,-1.24557 -0.5830765,-3.02548 -0.1865514,-0.73459 -0.3741262,-1.51136 -0.4168322,-1.72616 -0.1672957,-0.84145 -0.2194239,-2.67957 -0.1033729,-3.64509 0.1602649,-1.33337 1.2293597,-2.97769 2.5712608,-3.95474 1.4894372,-1.08446 3.0972813,-1.66415 4.8029543,-1.73164 0.412643,-0.0163 0.750261,-0.0193 0.750261,-0.007 0,0.0127 -0.227788,0.0658 -0.506196,0.11806 -1.32148,0.24812 -2.319685,0.95814 -2.7367853,1.94665 -0.2008501,0.47601 -0.2483645,0.92013 -0.1808952,1.69081 0.1325336,1.51389 0.5372625,2.77126 1.2768435,3.96674 0.341433,0.55191 1.005538,1.37403 1.37541,1.70267 l 0.293026,0.26037 0.0024,-0.57018 c 0.0026,-0.62147 0.08828,-1.08429 0.292309,-1.5787 0.18902,-0.45804 0.636748,-1.08397 0.775366,-1.08397 0.02885,0 0.246736,0.15133 0.484189,0.3363 0.257067,0.20024 0.611402,0.41988 0.875832,0.54289 l 0.444098,0.20659 0.03632,-0.1198 c 0.01998,-0.0659 0.09886,-0.34437 0.1753,-0.61883 0.07644,-0.27447 0.336228,-0.98722 0.577305,-1.58388 0.536993,-1.32906 0.575697,-1.47245 0.573946,-2.12631 -0.0012,-0.44541 -0.0216,-0.57093 -0.141122,-0.86787 -0.07685,-0.19094 -0.229181,-0.47296 -0.338512,-0.62672 -0.260097,-0.36579 -0.901103,-0.89886 -1.328714,-1.10497 -0.306458,-0.14771 -0.528708,-0.21611 -1.397267,-0.42998 l -0.26325,-0.0648 0.368549,0.003 c 0.202703,0.001 0.593628,0.0167 0.868724,0.0341 z"
         id="path867"
         inkscape:connector-curvature="0" />
      <path
         style="fill:#feedd0;stroke-width:0.04779842"
         d="m 14.500524,261.56891 c 0.231659,0.0176 0.615855,0.0736 0.853768,0.1245 2.78763,0.59654 5.021432,2.32107 5.916487,4.56762 0.334969,0.84076 0.443149,1.99293 0.304959,3.24797 -0.07254,0.65883 -0.258719,1.31863 -0.67958,2.40837 -0.33747,0.87382 -0.575364,1.6128 -0.69148,2.148 -0.09706,0.44736 -0.08642,2.19029 0.0165,2.70165 0.110755,0.55032 0.07707,0.56785 -0.455657,0.23717 -0.778347,-0.48315 -1.645492,-1.35197 -2.103326,-2.10739 -0.377375,-0.62266 -0.713445,-1.6618 -0.713445,-2.20599 0,-0.10319 -0.02024,-0.18762 -0.04498,-0.18762 -0.05743,0 -0.245871,0.54091 -0.321453,0.92272 -0.115628,0.58411 -0.151757,1.67446 -0.08949,2.70067 0.08976,1.47926 0.07662,2.64837 -0.03512,3.12437 -0.384185,1.63658 -1.399866,2.99799 -2.928031,3.92469 -0.636151,0.38577 -1.197871,0.61507 -1.270259,0.51854 -0.01827,-0.0244 0.01993,-0.21709 0.0849,-0.42827 0.207986,-0.67605 0.303967,-1.35571 0.303485,-2.14902 -0.001,-1.72489 -0.527143,-3.2734 -1.651995,-4.86249 -0.316279,-0.44681 -1.1540166,-1.41154 -1.3306466,-1.53236 -0.069362,-0.0474 -0.1195928,0.0132 -0.3688408,0.44539 -0.6733405,1.16753 -1.5363241,2.00158 -2.6123161,2.52473 -0.4305038,0.20931 -0.8584957,0.34353 -0.9764531,0.30623 -0.062423,-0.0197 -0.052121,-0.0749 0.059478,-0.31863 0.3126016,-0.68264 0.4329236,-1.52259 0.3409594,-2.38019 -0.07063,-0.65866 -0.1928504,-1.24806 -0.5258792,-2.53602 -0.5336913,-2.064 -0.6044065,-2.47634 -0.6697767,-3.90546 -0.076324,-1.66859 0.2761553,-2.86969 1.2034197,-4.10072 1.385094,-1.83886 3.8861244,-3.11467 6.2787804,-3.20291 0.394762,-0.0146 0.54291,-0.0101 0.394875,0.0119 -1.370544,0.20356 -2.469039,0.94737 -2.9647917,2.00753 l -0.1678796,0.359 0.00119,0.93297 c 0.00134,1.04222 0.067953,1.48596 0.3689873,2.45782 0.322153,1.04004 0.826157,1.97102 1.554755,2.87188 0.372725,0.46086 0.945849,1.04984 1.055802,1.08503 0.02427,0.008 0.04355,-0.26562 0.04286,-0.60752 -0.002,-0.96086 0.214105,-1.68342 0.680822,-2.27687 0.328102,-0.41719 0.327488,-0.4171 0.696398,-0.1054 0.458228,0.38716 1.44352,0.89778 1.49495,0.77474 0.01277,-0.0306 0.08546,-0.28988 0.161514,-0.57628 0.07606,-0.2864 0.336734,-1.01868 0.579276,-1.62728 0.625114,-1.56857 0.720194,-1.98364 0.602564,-2.63049 -0.216969,-1.19311 -1.272093,-2.18337 -2.737554,-2.56927 -0.188224,-0.0496 -0.413302,-0.0979 -0.500174,-0.1074 -0.278183,-0.0304 0.405656,-0.019 0.842399,0.0141 z"
         id="path865"
         inkscape:connector-curvature="0" />
      <path
         style="fill:#fee7b3;stroke-width:0.04779842"
         d="m 13.960862,261.55514 c -0.06516,0.0103 -0.171771,0.0103 -0.236925,0 -0.06515,-0.0103 -0.01185,-0.0188 0.118462,-0.0188 0.130309,0 0.183617,0.008 0.118463,0.0188 z m -1.158913,9e-5 c -0.06549,0.0104 -0.160262,0.01 -0.2106,-8.8e-4 -0.05034,-0.0109 0.0032,-0.0193 0.119077,-0.0189 0.11583,4.8e-4 0.157015,0.009 0.09152,0.0197 z m 2.233184,0.10232 c 1.559773,0.27008 2.978458,0.91292 4.153976,1.88227 1.937332,1.59754 2.70093,3.53471 2.366337,6.00317 -0.0922,0.68022 -0.260301,1.24642 -0.762065,2.56682 -0.203472,0.53544 -0.427486,1.19937 -0.497808,1.47539 -0.262661,1.03099 -0.296815,2.05042 -0.104568,3.1211 0.04439,0.24724 0.06658,0.46119 0.0493,0.47543 -0.10453,0.0861 -1.03879,-0.54874 -1.560426,-1.06042 -1.012781,-0.99344 -1.549552,-2.06736 -1.705591,-3.4124 -0.01871,-0.16132 -0.05517,-0.28254 -0.08101,-0.26938 -0.0774,0.0394 -0.260648,0.57818 -0.346368,1.01832 -0.125915,0.64654 -0.149176,2.19322 -0.0517,3.43752 0.06569,0.83855 0.07212,1.19358 0.02948,1.62727 -0.121522,1.23589 -0.518981,2.20763 -1.298876,3.1756 -0.3602,0.44706 -1.257735,1.20358 -1.80462,1.52109 -0.38632,0.22429 -1.10358,0.53906 -1.146929,0.50333 -0.01202,-0.01 0.03932,-0.23299 0.114073,-0.49576 0.431581,-1.51694 0.386617,-3.15 -0.127213,-4.62029 -0.444506,-1.27193 -1.26161,-2.56286 -2.2927193,-3.62224 -0.2277752,-0.23402 -0.3695136,-0.34627 -0.4027047,-0.31891 -0.02817,0.0232 -0.1389716,0.20525 -0.2462248,0.40451 -0.5144846,0.95587 -1.2596876,1.76354 -2.1354435,2.31447 -0.4329994,0.27239 -1.0400874,0.53591 -1.321257,0.57352 -0.2256724,0.0302 -0.2254718,0.0648 -0.00258,-0.44508 0.2365146,-0.54108 0.3106457,-1.03581 0.279249,-1.86363 -0.031434,-0.82882 -0.1176431,-1.30335 -0.5148959,-2.83419 -0.4167258,-1.60588 -0.5707253,-2.35198 -0.654812,-3.17244 -0.1933337,-1.88643 0.020198,-3.04129 0.7989739,-4.32113 0.9786675,-1.60835 2.7011729,-2.85206 4.7731393,-3.44638 0.719533,-0.20639 1.962703,-0.39309 1.797385,-0.26994 -0.02751,0.0205 -0.209225,0.087 -0.403812,0.14768 -1.013565,0.31631 -1.83581,1.04019 -2.1805471,1.91967 -0.3937537,1.00453 -0.096324,3.13561 0.6612391,4.73778 0.49668,1.05042 1.363632,2.21596 2.06787,2.78007 l 0.230052,0.18428 8.53e-4,-0.7267 c 9.32e-4,-0.79204 0.08717,-1.20422 0.366304,-1.75083 0.171428,-0.33568 0.539491,-0.82012 0.623111,-0.82012 0.03469,0 0.180644,0.0994 0.324342,0.22086 0.143699,0.12148 0.403426,0.30499 0.57717,0.40781 0.355922,0.21063 0.902297,0.44298 0.949742,0.40387 0.01722,-0.0142 0.09937,-0.28083 0.18256,-0.59253 0.08319,-0.3117 0.354624,-1.07269 0.603191,-1.69107 0.513062,-1.27641 0.60743,-1.62041 0.60743,-2.21429 0,-1.2289 -0.967904,-2.38583 -2.391283,-2.85828 -0.176104,-0.0585 -0.342697,-0.1241 -0.370207,-0.14587 -0.08161,-0.0646 0.324183,-0.0407 0.847877,0.05 z"
         id="path863"
         inkscape:connector-curvature="0" />
      <path
         style="fill:#fedba9;stroke-width:0.04779842"
         d="m 13.934537,261.55443 c -0.05068,0.0109 -0.1336,0.0109 -0.184275,0 -0.05068,-0.0109 -0.0092,-0.0199 0.09214,-0.0199 0.101351,0 0.142813,0.009 0.09214,0.0199 z m -1.184624,-0.001 c -0.0362,0.012 -0.09543,0.012 -0.131625,0 -0.0362,-0.012 -0.0066,-0.0219 0.06581,-0.0219 0.07239,0 0.102009,0.01 0.06581,0.0219 z m 2.32976,0.12938 c 3.366939,0.58706 6.054408,2.99461 6.476031,5.80151 0.207472,1.38121 0.01749,2.56736 -0.71005,4.43322 -0.657902,1.68726 -0.819859,2.46717 -0.770454,3.71018 0.01755,0.44153 0.06503,0.95901 0.105513,1.14994 0.04048,0.19093 0.0546,0.36395 0.03138,0.38447 -0.11699,0.1034 -1.273501,-0.75926 -1.81584,-1.35446 -0.795453,-0.87299 -1.390645,-2.20832 -1.395454,-3.13074 -5.6e-4,-0.1074 -0.02324,-0.22424 -0.05041,-0.25965 -0.06538,-0.0852 -0.179349,0.13746 -0.316783,0.61894 -0.190057,0.66583 -0.229056,1.24705 -0.182382,2.71814 0.07049,2.2216 0.05844,3.08952 -0.04915,3.54015 -0.216153,0.90536 -0.682662,1.81796 -1.280866,2.50566 -0.392534,0.45127 -1.144799,1.0727 -1.676655,1.38506 -0.398138,0.23383 -1.129582,0.57115 -1.168652,0.53895 -0.0101,-0.008 0.02879,-0.16873 0.0864,-0.35646 0.745207,-2.42798 0.279053,-4.8937 -1.354974,-7.16714 -0.506095,-0.70413 -1.3021047,-1.57092 -1.4426458,-1.57092 -0.024783,0 -0.07169,0.0635 -0.1042374,0.14103 -0.1311857,0.31264 -0.6332687,1.07865 -0.9459061,1.44313 -0.6090803,0.71009 -1.4750954,1.32932 -2.2795391,1.62995 -0.3615181,0.1351 -0.5006956,0.15717 -0.5006956,0.0794 0,-0.0263 0.068276,-0.2167 0.1517239,-0.42309 0.2247884,-0.55595 0.2917191,-0.94829 0.2860977,-1.67707 -0.00548,-0.70982 -0.083551,-1.21389 -0.3595943,-2.32157 -0.098138,-0.3938 -0.2834331,-1.13584 -0.4117673,-1.64897 -0.6400068,-2.55902 -0.6625879,-4.16784 -0.078823,-5.6159 0.8223368,-2.03984 2.8078622,-3.6777 5.286951,-4.3612 0.542246,-0.1495 1.159055,-0.26454 1.407359,-0.26249 0.143367,10e-4 0.09898,0.029 -0.306179,0.19193 -0.832628,0.33481 -1.435279,0.83439 -1.8138781,1.50367 -0.2824627,0.49933 -0.3443869,0.77251 -0.3383127,1.49247 0.017442,2.06747 0.7983458,4.10383 2.1799298,5.68461 0.334848,0.38312 0.94455,0.94886 0.985885,0.91479 0.01449,-0.0119 0.03116,-0.37887 0.03706,-0.8154 0.01185,-0.8781 0.08925,-1.21921 0.401591,-1.77006 0.198144,-0.34944 0.462964,-0.6943 0.53316,-0.6943 0.029,0 0.224684,0.13181 0.43485,0.29291 0.403749,0.30949 1.170342,0.71844 1.356622,0.72371 0.08091,0.002 0.120753,-0.0319 0.148184,-0.12705 0.02064,-0.0716 0.102718,-0.36432 0.182407,-0.6505 0.07969,-0.28617 0.342165,-1.00868 0.583281,-1.60557 0.241116,-0.5969 0.474877,-1.25868 0.519469,-1.47064 0.156572,-0.74424 0.07384,-1.31023 -0.279839,-1.9145 -0.418215,-0.71453 -1.028258,-1.22297 -1.876708,-1.56414 -0.459405,-0.18474 -0.46743,-0.19048 -0.263249,-0.18839 0.115829,10e-4 0.376447,0.0311 0.579149,0.0664 z"
         id="path861"
         inkscape:connector-curvature="0" />
      <path
         style="fill:#fee48e;stroke-width:0.04779842"
         d="m 13.908212,261.55326 c -0.0362,0.012 -0.09543,0.012 -0.131625,0 -0.0362,-0.012 -0.0066,-0.0219 0.06581,-0.0219 0.07239,0 0.10201,0.01 0.06581,0.0219 z m 1.179571,0.14766 c 1.476517,0.25568 3.039467,0.971 4.134025,1.89202 1.138312,0.95784 1.906536,2.15684 2.261363,3.5294 0.09932,0.38421 0.117938,0.59169 0.118734,1.32351 0.0013,1.20358 -0.125965,1.77558 -0.762784,3.42812 -0.645352,1.67469 -0.794374,2.3275 -0.792472,3.47152 6.98e-4,0.42019 0.03659,0.95248 0.08338,1.23673 0.04519,0.27446 0.08235,0.51367 0.08258,0.53157 0.003,0.23085 -1.228074,-0.67678 -1.838819,-1.35568 -0.402091,-0.44696 -0.90059,-1.27546 -1.083781,-1.80123 -0.147467,-0.42323 -0.287815,-1.10448 -0.288311,-1.39945 -5.47e-4,-0.32487 -0.144541,-0.22455 -0.308125,0.21467 -0.300498,0.80683 -0.379209,2.08661 -0.244466,3.97481 0.0781,1.09436 0.08351,1.40757 0.03233,1.86934 -0.176165,1.58945 -0.873218,2.85109 -2.162165,3.91344 -0.539596,0.44473 -1.231288,0.86939 -1.80931,1.1108 -0.231716,0.0968 -0.257579,0.10019 -0.224391,0.0296 0.0662,-0.14079 0.234485,-0.76109 0.327716,-1.20801 0.141837,-0.67992 0.128164,-2.08871 -0.0273,-2.81238 -0.301351,-1.40281 -0.934757,-2.70927 -1.878061,-3.87367 -0.488005,-0.60239 -1.0156977,-1.14656 -1.1118322,-1.14656 -0.036269,0 -0.2055691,0.24057 -0.3762218,0.53461 -0.662582,1.14162 -1.5398353,1.98878 -2.5793483,2.49088 -0.3242504,0.15662 -0.8199654,0.31743 -0.8647778,0.28054 -0.020637,-0.017 0.031731,-0.19662 0.1163727,-0.39918 0.2475005,-0.59232 0.3320141,-1.12972 0.2967713,-1.88709 -0.033944,-0.72945 -0.1037709,-1.14306 -0.3780055,-2.23905 -0.5628715,-2.24954 -0.6624794,-2.68353 -0.7565911,-3.29647 -0.1417089,-0.92293 -0.1835461,-1.75221 -0.115295,-2.28534 0.3522513,-2.75155 2.3812093,-4.92856 5.4834207,-5.88354 0.474925,-0.1462 1.562384,-0.36023 1.614021,-0.31768 0.01314,0.0108 -0.163313,0.1 -0.392108,0.19806 -1.271244,0.54511 -2.0041766,1.45934 -2.1023687,2.62243 -0.064258,0.76114 0.1764873,2.26442 0.5117317,3.1954 0.355455,0.98712 0.968182,2.02839 1.661163,2.82301 0.306242,0.35115 0.94609,0.95226 1.013644,0.95227 0.01901,1e-5 0.0349,-0.3466 0.03533,-0.77024 8.58e-4,-0.86082 0.08718,-1.25932 0.394406,-1.82078 0.184748,-0.33763 0.474194,-0.70672 0.554322,-0.70684 0.02995,-4e-5 0.183948,0.10845 0.342225,0.2411 0.427691,0.35843 1.339853,0.83483 1.500924,0.78388 0.03903,-0.0123 0.08623,-0.0967 0.104874,-0.18745 0.09561,-0.46523 0.398938,-1.35499 0.767304,-2.25072 0.586966,-1.42729 0.692285,-2.05226 0.467765,-2.7758 -0.284225,-0.91593 -1.003748,-1.6493 -2.066079,-2.10583 -0.224421,-0.0965 -0.408037,-0.18413 -0.408037,-0.19485 0,-0.0338 0.169193,-0.0159 0.666234,0.0701 z"
         id="path859"
         inkscape:connector-curvature="0" />
      <path
         style="fill:#fed18e;stroke-width:0.04779842"
         d="m 11.499477,261.83944 c -0.495506,0.21415 -1.212015,0.77524 -1.491088,1.16765 -0.4518646,0.63537 -0.5854175,1.26298 -0.4926378,2.31507 0.1537199,1.74313 0.7045168,3.24043 1.6833808,4.57615 0.507889,0.69304 1.365632,1.56342 1.540724,1.56342 0.09168,0 0.09565,-0.0348 0.06592,-0.57693 -0.05027,-0.91657 0.162395,-1.76354 0.590684,-2.35251 0.300237,-0.41288 0.284204,-0.40935 0.61614,-0.13577 0.445072,0.36683 1.406642,0.85215 1.579831,0.79738 0.04798,-0.0152 0.109998,-0.16688 0.166704,-0.4078 0.134137,-0.5699 0.259037,-0.92797 0.718536,-2.0599 0.228927,-0.56394 0.454851,-1.20834 0.502052,-1.432 0.168041,-0.79625 0.01581,-1.56404 -0.437667,-2.2075 -0.270345,-0.3836 -1.053828,-1.02484 -1.475546,-1.20765 -0.180984,-0.0785 -0.329062,-0.15398 -0.329062,-0.16783 0,-0.0645 0.665252,0.0359 1.182454,0.17855 2.832707,0.78124 4.920073,2.74453 5.563269,5.23257 0.09932,0.38421 0.117938,0.59169 0.118734,1.32351 0.0013,1.20358 -0.125965,1.77558 -0.762784,3.42812 -0.645352,1.67469 -0.794374,2.3275 -0.792472,3.47152 6.98e-4,0.42019 0.03659,0.95248 0.08338,1.23673 0.04519,0.27446 0.08235,0.51367 0.08258,0.53157 0.003,0.23085 -1.228074,-0.67678 -1.838819,-1.35568 -0.402091,-0.44696 -0.90059,-1.27546 -1.083781,-1.80123 -0.147467,-0.42323 -0.287815,-1.10448 -0.288311,-1.39945 -5.47e-4,-0.32487 -0.144541,-0.22455 -0.308125,0.21467 -0.300498,0.80683 -0.379209,2.08661 -0.244466,3.97481 0.0781,1.09436 0.08351,1.40757 0.03233,1.86934 -0.176165,1.58945 -0.873218,2.85109 -2.162165,3.91344 -0.539596,0.44473 -1.231288,0.86939 -1.80931,1.1108 -0.231716,0.0968 -0.257579,0.10019 -0.224391,0.0296 0.0662,-0.14079 0.234485,-0.76109 0.327716,-1.20801 0.141837,-0.67992 0.128164,-2.08871 -0.0273,-2.81238 -0.301351,-1.40281 -0.934757,-2.70927 -1.878061,-3.87367 -0.488005,-0.60239 -1.0156977,-1.14656 -1.1118322,-1.14656 -0.036269,0 -0.2055691,0.24057 -0.3762218,0.53461 -0.662582,1.14162 -1.5398353,1.98878 -2.5793483,2.49088 -0.3242504,0.15662 -0.8199654,0.31743 -0.8647778,0.28054 -0.020637,-0.017 0.031731,-0.19662 0.1163727,-0.39918 0.2475005,-0.59232 0.3320141,-1.12972 0.2967713,-1.88709 -0.033944,-0.72945 -0.1037709,-1.14306 -0.3780055,-2.23905 -0.5628715,-2.24954 -0.6624794,-2.68353 -0.7565911,-3.29647 -0.2534505,-1.65069 -0.1831097,-2.64598 0.2696819,-3.81588 0.6636919,-1.71481 2.2109656,-3.21237 4.1470444,-4.01379 0.5507854,-0.22799 1.2417024,-0.44209 1.7522334,-0.54297 0.690544,-0.13644 0.761234,-0.11127 0.276208,0.0984 z"
         id="path857"
         inkscape:connector-curvature="0" />
      <path
         style="fill:#feda63;stroke-width:0.04779842"
         d="m 15.534442,261.8285 c 2.565966,0.56753 4.766904,2.29783 5.627909,4.42449 0.363674,0.89826 0.517717,1.8651 0.430063,2.69927 -0.0966,0.91929 -0.257942,1.51667 -0.782385,2.8968 -0.636784,1.67577 -0.751917,2.14297 -0.792122,3.21437 -0.02558,0.68172 0.0047,1.13617 0.122088,1.83339 0.02057,0.12217 0.0142,0.20613 -0.01564,0.20613 -0.108892,0 -0.9577,-0.61043 -1.301433,-0.93594 -1.053894,-0.99803 -1.653955,-2.15865 -1.752398,-3.38946 -0.01752,-0.21903 -0.05254,-0.42406 -0.07781,-0.45563 -0.13084,-0.1634 -0.42394,0.54068 -0.550225,1.32174 -0.106811,0.66062 -0.11645,2.2115 -0.02054,3.30431 0.178365,2.03224 -0.175678,3.36659 -1.247761,4.70269 -0.548773,0.68392 -1.515196,1.42403 -2.370925,1.81572 -0.195845,0.0896 -0.36398,0.17861 -0.373632,0.19772 -0.0097,0.0191 -0.03712,0.0347 -0.06105,0.0347 -0.02392,0 -0.01024,-0.10252 0.0304,-0.22782 0.606356,-1.86933 0.45147,-3.93473 -0.433595,-5.78199 -0.260205,-0.54308 -0.84268,-1.46166 -1.230898,-1.94115 -0.450401,-0.5563 -1.0516696,-1.16177 -1.1537015,-1.16177 -0.054828,0 -0.1382856,0.10375 -0.2356217,0.29291 -0.528022,1.02614 -1.3535535,1.94148 -2.2388001,2.48237 -0.3580901,0.21879 -1.2459486,0.59766 -1.2987007,0.55419 -0.015927,-0.0131 0.03057,-0.15988 0.103326,-0.32612 0.2499093,-0.57101 0.3148319,-0.92789 0.3134877,-1.72323 -0.00148,-0.87825 -0.071805,-1.27931 -0.5630342,-3.21115 -0.3567338,-1.40292 -0.5303186,-2.19117 -0.5876938,-2.66873 -0.018638,-0.15514 -0.056285,-0.35542 -0.083661,-0.44508 -0.06923,-0.22673 -0.069332,-1.7171 -1.579e-4,-1.97134 0.031274,-0.1149 0.1078523,-0.40419 0.170174,-0.64286 0.1557686,-0.59652 0.3703829,-1.08239 0.7379568,-1.67066 1.0661476,-1.70629 2.963933,-2.9661 5.1991204,-3.45133 0.694385,-0.15074 0.789204,-0.13546 0.349623,0.0564 -0.442157,0.19294 -1.17729,0.77845 -1.438438,1.14565 -0.451865,0.63537 -0.5854179,1.26298 -0.4926382,2.31507 0.1537431,1.74313 0.7045402,3.24043 1.6834042,4.57615 0.507889,0.69304 1.365632,1.56342 1.540724,1.56342 0.09168,0 0.09565,-0.0348 0.06592,-0.57693 -0.05027,-0.91657 0.162395,-1.76354 0.590684,-2.35251 0.300237,-0.41288 0.284204,-0.40935 0.61614,-0.13577 0.445072,0.36683 1.406642,0.85215 1.579831,0.79738 0.04798,-0.0152 0.109998,-0.16688 0.166704,-0.4078 0.134137,-0.5699 0.259037,-0.92797 0.718536,-2.0599 0.228927,-0.56394 0.454851,-1.20834 0.502052,-1.432 0.168041,-0.79625 0.01581,-1.56404 -0.437667,-2.2075 -0.270345,-0.3836 -1.053828,-1.02484 -1.475546,-1.20765 -0.180984,-0.0785 -0.329062,-0.15127 -0.329062,-0.1618 0,-0.0432 0.267657,-0.006 0.796993,0.11125 z"
         id="path855"
         inkscape:connector-curvature="0" />
      <path
         style="fill:#fecc57;stroke-width:0.04779842"
         d="m 11.510159,261.76884 c -0.01578,0.013 -0.25327,0.10701 -0.527755,0.2089 -1.2956637,0.48094 -2.335909,1.30854 -2.982217,2.3726 -0.4858358,0.79986 -0.6863799,1.54126 -0.6863799,2.53752 0,1.62933 0.4988529,3.00012 1.5711842,4.31743 0.4328498,0.53174 0.7766966,0.87648 1.8861607,1.89106 0.950344,0.86906 1.291173,1.21129 1.656528,1.66332 0.278036,0.344 0.62012,0.90326 0.729932,1.19334 0.03614,0.0955 0.08479,0.19068 0.108113,0.21159 0.07252,0.065 0.627276,-1.51444 0.889717,-2.53317 0.216092,-0.83882 0.424056,-2.17197 0.424056,-2.71842 0,-0.0605 0.03126,-0.10219 0.07653,-0.10219 0.04209,0 0.317702,0.12008 0.612475,0.26685 l 0.535949,0.26685 0.0991,-0.10412 c 0.0545,-0.0573 0.292601,-0.3375 0.529106,-0.62273 1.103985,-1.33145 1.877512,-2.6091 2.208135,-3.64721 0.105706,-0.33191 0.124061,-0.49154 0.122242,-1.06315 -0.0026,-0.82395 -0.113328,-1.24508 -0.49622,-1.88764 -0.563853,-0.94625 -1.412516,-1.60863 -2.615665,-2.04154 -0.315705,-0.1136 -0.377995,-0.14892 -0.263336,-0.14933 0.448218,-0.002 1.883956,0.53536 2.704639,1.01149 0.592449,0.34372 1.528683,1.11536 1.945714,1.60365 1.10384,1.29247 1.705865,3.02622 1.553446,4.47371 -0.09692,0.92045 -0.286042,1.61454 -0.829156,3.04311 -0.617585,1.62445 -0.759219,2.25305 -0.759698,3.37166 -1.73e-4,0.40283 0.03551,0.94982 0.08034,1.23173 0.04436,0.2789 0.06865,0.51699 0.05399,0.52908 -0.04287,0.0353 -0.598733,-0.3334 -1.003648,-0.66577 -1.2245,-1.00513 -1.932891,-2.2748 -2.067441,-3.70554 -0.04643,-0.49367 -0.117209,-0.54105 -0.304516,-0.20384 -0.353088,0.63565 -0.496492,2.00692 -0.386446,3.69529 0.106219,1.62966 0.09214,2.48773 -0.05072,3.09085 -0.304106,1.28391 -0.957548,2.31288 -2.034023,3.20298 -0.635026,0.52508 -1.786523,1.18765 -1.900621,1.09361 -0.01278,-0.0105 0.03541,-0.22224 0.107101,-0.47045 0.07169,-0.24821 0.160383,-0.62704 0.197096,-0.84184 0.09483,-0.55485 0.07961,-1.9329 -0.0275,-2.48923 -0.291627,-1.5147 -1.018321,-2.98424 -2.116586,-4.28022 -0.394726,-0.46579 -0.9023184,-0.97637 -0.970658,-0.97637 -0.026928,0 -0.1930984,0.24835 -0.3692667,0.55188 -0.3718317,0.64067 -0.5318222,0.85922 -0.9791951,1.33761 -0.5493152,0.5874 -1.2179768,1.0457 -1.9316977,1.32399 -0.503037,0.19614 -0.5259213,0.18584 -0.3760617,-0.16933 0.2469861,-0.58535 0.3024481,-0.89407 0.3052143,-1.69894 0.00311,-0.90579 -0.051565,-1.22804 -0.5257017,-3.09828 -0.38484,-1.51801 -0.5736621,-2.37249 -0.6290583,-2.84669 -0.020911,-0.179 -0.058861,-0.37156 -0.084334,-0.42792 -0.064473,-0.14263 -0.061944,-1.75674 0.00302,-1.92751 0.029234,-0.0768 0.091754,-0.3139 0.1389316,-0.52678 0.3097527,-1.39774 1.3398366,-2.86361 2.671304,-3.80143 0.8533439,-0.60105 1.816216,-1.05604 2.7945503,-1.32053 0.497824,-0.13458 0.979082,-0.22412 0.913327,-0.16993 z"
         id="path853"
         inkscape:connector-curvature="0" />
      <path
         style="fill:#feb345;stroke-width:0.04779842"
         d="m 10.435556,262.11622 c -1.6692193,0.77702 -2.8243894,2.17471 -3.151295,3.81289 -0.066842,0.33495 -0.080064,0.60197 -0.058012,1.17153 0.062068,1.60311 0.5081545,2.80074 1.5112417,4.0573 0.4348953,0.54479 0.8315941,0.9474 1.8599543,1.88767 1.10729,1.01244 1.351004,1.25756 1.755608,1.76572 0.359501,0.45152 0.56391,0.79547 0.749415,1.26101 0.06419,0.1611 0.146919,0.29291 0.183833,0.29291 0.116626,0 0.748863,-1.83475 1.024288,-2.97249 0.176066,-0.7273 0.270965,-1.31832 0.305083,-1.90001 0.0179,-0.30515 0.05093,-0.56417 0.07341,-0.57562 0.02248,-0.0114 0.280359,0.0984 0.573074,0.24417 0.451723,0.22491 0.544665,0.25647 0.614567,0.20865 0.119269,-0.0816 0.733512,-0.80513 1.174596,-1.38361 0.519471,-0.68129 1.257181,-1.91669 1.490245,-2.49562 0.350009,-0.86942 0.431558,-1.55311 0.274886,-2.30458 -0.273701,-1.31278 -1.128371,-2.33702 -2.531014,-3.03316 -0.387555,-0.19234 -0.304841,-0.19193 0.251108,10e-4 2.529541,0.87898 4.402185,2.83198 4.886324,5.096 0.05386,0.25186 0.10359,0.42863 0.110516,0.39283 0.0069,-0.0358 0.02943,0.11066 0.05,0.32546 0.04081,0.42601 0.0028,1.39942 -0.05175,1.32663 -0.01864,-0.0248 -0.06196,0.138 -0.09627,0.36189 -0.07431,0.48495 -0.331826,1.33 -0.668907,2.19509 -0.582954,1.4961 -0.754488,2.17045 -0.800299,3.14621 -0.02732,0.58187 0.01477,1.21254 0.125239,1.87684 l 0.03425,0.20592 -0.206386,-0.12783 c -0.435907,-0.27 -0.812861,-0.5617 -1.141357,-0.88322 -1.045537,-1.02334 -1.545113,-2.06174 -1.701547,-3.53678 -0.02546,-0.24008 -0.0472,-0.29286 -0.116101,-0.28192 -0.133685,0.0212 -0.267564,0.25217 -0.404963,0.69859 -0.209338,0.68016 -0.259307,1.35578 -0.20909,2.82708 0.07301,2.13905 0.0603,3.06679 -0.04818,3.51575 -0.209067,0.86528 -0.637767,1.72015 -1.204756,2.40239 -0.355171,0.42737 -1.269895,1.1814 -1.77736,1.46513 -0.485245,0.2713 -0.832103,0.4313 -0.869021,0.40088 -0.01529,-0.0126 0.02151,-0.19404 0.08178,-0.4032 0.266157,-0.92365 0.341707,-2.31904 0.17795,-3.28672 -0.30342,-1.79299 -1.341269,-3.68244 -2.8017507,-5.10073 -0.3046615,-0.29586 -0.4047059,-0.29586 -0.5505204,0 -0.1915784,0.38872 -0.6019415,1.01764 -0.8926391,1.36805 -0.3587346,0.43243 -1.1230174,1.06338 -1.6070109,1.32666 -0.3409368,0.18546 -0.9631774,0.43185 -1.0050015,0.39796 -0.00894,-0.007 0.021282,-0.0872 0.067151,-0.17768 0.283451,-0.55913 0.4201765,-1.47374 0.343722,-2.2993 -0.073345,-0.79198 -0.1502687,-1.1534 -0.7093821,-3.33292 -0.2411841,-0.94017 -0.4349985,-1.91561 -0.4815011,-2.42333 -0.023723,-0.25901 -0.050975,-0.37018 -0.077192,-0.31489 -0.022288,0.047 -0.040524,-0.3051 -0.040524,-0.78243 0,-0.52234 0.018015,-0.83333 0.045249,-0.78109 0.036042,0.0691 0.046002,0.0528 0.048949,-0.08 0.00204,-0.0917 0.05153,-0.3602 0.1099873,-0.59663 0.495437,-2.00375 2.006367,-3.68069 4.2110084,-4.6737 0.3935582,-0.17727 1.3039161,-0.48619 1.4327261,-0.48619 0.03729,10e-6 -0.126658,0.0905 -0.364325,0.20116 z"
         id="path851"
         inkscape:connector-curvature="0" />
    </g>
  </g>
</svg>
